<?xml version="1.0" encoding="UTF-8" standalone="no"?>
        <svg 
    viewBox="9.375 -75 432.275390625 51.26953125"
    width="422.900390625"
    height="126.26953125"
   xmlns="http://www.w3.org/2000/svg"
   xmlns:svg="http://www.w3.org/2000/svg">
   <path d="M57.13-66.06L57.13-66.06Q57.28-92.43 58.59-98.00L58.59-98.00Q59.03-98.73 60.50-99.39Q61.96-100.05 64.01-100.34L64.01-100.34Q66.65-100.63 67.60-101.07Q68.55-101.51 68.55-102.39L68.55-102.39Q68.55-102.69 68.55-102.98L68.55-102.98Q68.55-104.59 69.58-106.57Q70.61-108.54 72.22-110.60L72.22-110.60Q73.54-111.91 74.41-111.99Q75.29-112.06 75.44-112.06L75.44-112.06Q76.90-112.06 78.81-110.60L78.81-110.60Q80.71-109.28 80.86-107.89Q81.01-106.49 81.01-106.05L81.01-106.05Q81.01-104.15 79.83-103.27L79.83-103.27Q79.69-102.69 79.54-102.32Q79.39-101.95 79.39-101.37L79.39-101.37Q79.39-100.63 80.57-100.34Q81.74-100.05 85.99-100.05L85.99-100.05Q87.74-99.76 89.21-99.24Q90.67-98.73 91.55-97.71L91.55-97.71Q92.87-96.68 93.02-95.65Q93.16-94.63 93.16-93.60L93.16-93.60Q93.16-92.43 93.02-90.53L93.02-90.53Q92.87-87.89 92.43-80.93Q91.99-73.97 91.70-65.77L91.70-65.77L91.26-46.58L93.60-48.05Q95.07-49.07 95.80-49.07L95.80-49.07Q95.95-49.07 96.39-49.00Q96.83-48.93 98.14-47.61L98.14-47.61Q99.76-45.85 99.76-43.80L99.76-43.80Q99.76-43.21 99.46-41.60Q99.17-39.99 95.65-35.16L95.65-35.16L91.26-29.15L91.70-12.01Q91.99-6.30 91.99-2.34L91.99-2.34Q91.99 3.22 91.33 6.67Q90.67 10.11 87.74 10.11L87.74 10.11Q85.40 10.11 80.57 8.06Q75.73 6.01 74.56 4.10L74.56 4.10Q74.27 3.22 74.27 2.34L74.27 2.34Q74.27 1.17 75.07-0.37Q75.88-1.90 78.37-2.78L78.37-2.78Q80.71-3.08 81.23-4.25Q81.74-5.42 81.74-10.40L81.74-10.40Q81.88-12.01 81.88-13.33L81.88-13.33Q81.88-14.65 81.67-15.97Q81.45-17.29 81.01-17.29L81.01-17.29Q80.13-17.29 77.64-15.53Q75.15-13.77 70.61-9.81L70.61-9.81Q65.33-5.71 63.43-5.35Q61.52-4.98 61.08-4.98L61.08-4.98Q58.45-4.98 57.71-8.06L57.71-8.06Q57.42-9.52 57.42-10.55L57.42-10.55Q57.42-11.72 58.01-13.04Q58.59-14.36 61.23-15.97L61.23-15.97Q66.65-19.92 73.54-27.03Q80.42-34.13 81.01-36.77L81.01-36.77Q80.71-37.06 78.96-37.06L78.96-37.06Q77.20-37.06 72.36-36.62Q67.53-36.18 62.70-35.16L62.70-35.16Q61.38-34.86 60.06-34.86Q58.74-34.86 58.30-35.16L58.30-35.16Q57.13-39.26 57.13-60.94L57.13-60.94Q57.13-63.43 57.13-66.06ZM95.80-84.52L95.80-84.52Q95.95-85.55 96.97-86.57L96.97-86.57Q97.85-87.89 100.20-88.40Q102.54-88.92 110.01-89.21L110.01-89.21L120.70-89.50L120.70-99.76Q120.70-107.23 121.51-109.94Q122.31-112.65 124.66-113.23L124.66-113.23Q125.24-113.53 126.05-113.53Q126.86-113.53 127.59-113.23L127.59-113.23Q129.93-112.65 130.59-109.79Q131.25-106.93 131.25-98.73L131.25-98.73L131.25-87.60L133.89-87.89Q134.47-88.04 135.21-88.04L135.21-88.04Q135.79-88.04 136.74-87.82Q137.70-87.60 139.01-86.57L139.01-86.57Q140.33-85.55 140.48-84.89Q140.63-84.23 140.63-83.94L140.63-83.94Q140.63-83.20 140.33-82.18L140.33-82.18Q139.75-80.57 138.72-79.61Q137.70-78.66 135.21-78.22L135.21-78.22L131.25-76.90L131.84-36.18Q132.13-19.04 132.13-7.03L132.13-7.03L132.13 6.74Q131.25 9.67 130.00 9.74Q128.76 9.81 128.61 9.81L128.61 9.81Q126.27 9.81 121.88 7.32L121.88 7.32Q117.04 4.83 113.75 1.68Q110.45-1.46 110.45-3.81L110.45-3.81Q110.45-5.86 112.06-7.76Q113.67-9.67 115.43-9.67L115.43-9.67Q116.31-9.67 117.33-9.23Q118.36-8.79 119.24-8.06L119.24-8.06Q119.97-7.18 120.41-7.03Q120.85-6.88 121.14-6.88L121.14-6.88Q121.44-6.88 121.58-7.03L121.58-7.03L121.58-17.87Q121.58-27.83 121.29-42.77L121.29-42.77L120.56-78.22L109.72-77.93Q107.52-77.78 105.76-77.78L105.76-77.78Q100.78-77.78 98.66-78.52Q96.53-79.25 95.65-82.32L95.65-82.32Q95.65-82.76 95.65-83.06L95.65-83.06Q95.65-83.79 95.80-84.52ZM14.21-28.71L14.21-28.71Q14.50-32.08 15.82-32.52L15.82-32.52Q16.55-33.11 19.63-33.18Q22.71-33.25 24.46-33.25L24.46-33.25Q27.98-33.25 32.37-33.11L32.37-33.11Q34.42-33.11 36.18-33.11L36.18-33.11Q47.17-33.11 49.15-31.05Q51.12-29.00 51.12-21.24L51.12-21.24Q51.12-17.87 50.83-13.33L50.83-13.33Q50.83-6.74 50.61-1.68Q50.39 3.37 50.39 4.39L50.39 4.39Q49.80 6.45 46.00 7.10Q42.19 7.76 31.93 7.76L31.93 7.76Q29.15 7.91 27.10 7.91L27.10 7.91Q24.46 7.91 22.12 7.62Q19.78 7.32 19.04 6.74L19.04 6.74Q17.43 5.42 16.33 0.29Q15.23-4.83 14.79-15.67L14.79-15.67Q14.21-22.85 14.21-26.51L14.21-26.51Q14.21-27.83 14.21-28.71ZM10.25-88.18L10.25-88.18Q10.84-89.50 11.65-90.45Q12.45-91.41 12.89-91.55L12.89-91.55Q15.82-91.99 26.37-91.99L26.37-91.99Q28.86-91.99 38.16-91.92Q47.46-91.85 50.68-91.41L50.68-91.41Q52.44-90.09 52.51-88.70Q52.59-87.30 52.59-87.16L52.59-87.16Q52.59-84.81 50.83-83.20L50.83-83.20Q50.39-82.32 46.66-82.10Q42.92-81.88 32.96-81.88L32.96-81.88Q26.07-81.88 21.09-81.59Q16.11-81.30 15.09-81.01L15.09-81.01Q14.50-81.01 13.48-81.59Q12.45-82.18 11.28-83.20L11.28-83.20Q9.52-84.81 9.45-85.25Q9.38-85.69 9.38-85.69L9.38-85.69Q9.38-86.57 10.25-88.18ZM17.43-73.39L17.43-73.39Q21.09-74.12 29.15-74.12L29.15-74.12Q30.47-74.12 36.33-74.05Q42.19-73.97 44.82-73.10L44.82-73.10Q46.88-71.92 46.88-69.73L46.88-69.73Q46.88-69.43 46.66-67.90Q46.44-66.36 43.51-64.75L43.51-64.75Q40.14-63.43 33.03-62.92Q25.93-62.40 22.71-62.40L22.71-62.40Q19.19-62.40 17.43-62.84L17.43-62.84Q13.48-64.75 13.48-68.26Q13.48-71.78 17.43-73.39ZM15.53-51.56L15.53-51.56Q16.11-52.59 17.58-53.25Q19.04-53.91 23.14-54.64L23.14-54.64Q24.46-54.79 26.22-54.79L26.22-54.79Q29.30-54.79 35.38-54.35Q41.46-53.91 44.09-52.88L44.09-52.88Q45.41-52.29 45.92-51.42Q46.44-50.54 46.44-48.63L46.44-48.63Q46.44-48.34 46.44-48.05L46.44-48.05Q46.44-44.82 43.80-43.87Q41.16-42.92 35.45-42.92L35.45-42.92Q33.25-42.92 30.62-43.07L30.62-43.07Q26.07-43.36 22.56-43.73Q19.04-44.09 18.16-44.38L18.16-44.38Q16.41-45.26 15.67-46.80Q14.94-48.34 14.94-49.37L14.94-49.37Q14.94-50.39 15.53-51.56ZM25.34-12.45L25.34-12.45Q25.63-9.81 26.07-7.76L26.07-7.76L27.10-2.78L33.69-3.22L40.58-3.52L41.16-21.97L25.05-21.97L25.05-17.29Q25.05-15.09 25.34-12.45ZM19.04-108.69L19.04-108.69Q19.78-110.30 21.39-111.18L21.39-111.18Q22.71-111.62 25.05-111.62L25.05-111.62Q26.66-111.62 30.18-111.25Q33.69-110.89 38.23-109.57L38.23-109.57Q44.24-107.37 45.56-105.32Q46.88-103.27 46.88-102.10L46.88-102.10Q46.88-100.34 44.82-98.44L44.82-98.44Q43.80-97.12 42.48-97.12Q41.16-97.12 37.21-98.73L37.21-98.73Q34.57-99.46 31.93-100.12Q29.30-100.78 27.69-101.07L27.69-101.07Q24.02-101.95 21.61-102.98Q19.19-104.00 18.75-105.32L18.75-105.32Q18.46-105.91 18.46-106.64L18.46-106.64Q18.46-107.67 19.04-108.69ZM103.42-60.79L103.42-60.79Q103.56-61.52 104.15-62.11L104.15-62.11Q105.62-63.72 106.93-63.72L106.93-63.72Q107.96-63.72 109.64-61.96Q111.33-60.21 114.70-50.98L114.70-50.98Q117.04-44.09 117.11-42.41Q117.19-40.72 117.19-40.58L117.19-40.58Q117.19-37.79 115.28-36.77L115.28-36.77Q114.40-36.18 113.67-36.18L113.67-36.18Q112.35-36.18 110.89-38.16Q109.42-40.14 107.08-47.90L107.08-47.90Q105.47-52.29 104.44-55.59Q103.42-58.89 103.13-59.47L103.13-59.47Q103.13-59.91 103.42-60.79ZM66.94-67.82L66.94-67.82L67.24-64.16L74.41-63.87Q76.03-63.72 77.34-63.72L77.34-63.72Q80.71-63.72 81.67-64.53Q82.62-65.33 82.62-67.53L82.62-67.53Q82.62-68.85 82.32-70.46L82.32-70.46L81.74-74.27L74.56-74.27Q69.14-74.27 67.97-73.32Q66.80-72.36 66.80-69.73L66.80-69.73Q66.80-68.85 66.94-67.82ZM66.65-49.66L66.65-49.66L66.65-45.41L73.24-45.70Q79.39-46.00 81.08-46.95Q82.76-47.90 82.76-50.39L82.76-50.39Q82.76-50.83 82.76-51.27L82.76-51.27L82.47-54.64L75.44-54.93L70.02-54.93Q67.82-54.93 67.53-54.64L67.53-54.64Q67.24-54.20 66.94-52.88Q66.65-51.56 66.65-49.66ZM67.24-86.57L67.24-86.57L67.53-83.20L82.76-82.62L82.76-91.41L75.44-91.41Q72.22-91.41 70.02-91.11Q67.82-90.82 67.53-90.53L67.53-90.53Q67.24-90.23 67.16-89.43Q67.09-88.62 67.09-88.33L67.09-88.33Q67.09-87.45 67.24-86.57ZM173.14-19.63L173.14-19.63Q173.44-23.00 179.59-31.20L179.59-31.20Q187.94-42.77 192.19-48.19Q196.44-53.61 197.46-54.20L197.46-54.20Q198.49-54.79 198.49-55.22L198.49-55.22Q198.49-55.52 197.53-55.96Q196.58-56.40 194.38-56.40L194.38-56.40Q193.36-56.40 192.19-56.25L192.19-56.25Q190.28-55.96 188.82-55.96L188.82-55.96Q185.89-55.96 184.42-57.71Q182.96-59.47 182.52-68.70L182.52-68.70Q181.93-73.10 181.42-79.83Q180.91-86.57 180.32-92.14L180.32-92.14Q179.59-98.73 179.59-102.83Q179.59-106.93 179.88-108.54L179.88-108.54L180.91-111.62L224.12-111.62Q251.81-111.62 260.38-111.40Q268.95-111.18 268.95-110.30L268.95-110.30Q269.68-109.57 269.75-106.71Q269.82-103.86 269.82-101.81L269.82-101.81Q269.82-97.71 269.68-90.82L269.68-90.82Q269.24-76.32 268.14-67.75Q267.04-59.18 265.72-57.13L265.72-57.13Q265.58-56.25 260.38-55.88Q255.18-55.52 238.92-55.52L238.92-55.52Q227.78-55.52 220.53-55.37Q213.28-55.22 212.99-54.93L212.99-54.93Q212.84-54.49 212.04-53.25Q211.23-52.00 210.21-50.54L210.21-50.54Q208.89-48.93 208.30-47.83Q207.71-46.73 207.71-46.44L207.71-46.44Q207.71-46.29 207.71-46.29L207.71-46.29Q208.30-46.00 212.92-45.85Q217.53-45.70 224.12-45.70L224.12-45.70Q255.47-45.70 265.21-45.34Q274.95-44.97 275.54-43.36L275.54-43.36Q277.15-42.48 277.15-39.99L277.15-39.99Q277.15-39.40 276.86-37.28Q276.56-35.16 273.19-21.97L273.19-21.97Q271.58-15.38 269.75-10.40Q267.92-5.42 265.28-0.15L265.28-0.15Q260.30 10.11 258.33 10.99Q256.35 11.87 255.47 11.87L255.47 11.87Q252.54 11.87 247.85 8.06L247.85 8.06Q243.31 4.83 242.36 2.93Q241.41 1.03 241.41-0.15L241.41-0.15Q241.41-1.46 241.99-2.78L241.99-2.78Q242.87-4.54 243.60-4.91Q244.34-5.27 245.51-5.27L245.51-5.27Q246.24-5.27 247.27-5.13L247.27-5.13Q249.17-4.83 251.00-4.61Q252.83-4.39 253.86-4.10L253.86-4.10Q254.44-3.81 254.88-3.81L254.88-3.81Q255.76-3.81 256.42-4.98Q257.08-6.15 259.13-13.33L259.13-13.33Q261.62-21.53 262.94-26.88Q264.26-32.23 264.26-33.25L264.26-33.25Q264.26-33.40 264.26-33.40L264.26-33.40Q262.65-33.84 257.45-34.06Q252.25-34.28 250.34-34.28L250.34-34.28Q246.53-34.28 245.21-33.84L245.21-33.84Q244.63-33.54 242.65-29.52Q240.67-25.49 238.04-19.63L238.04-19.63Q235.40-13.77 232.91-8.64Q230.42-3.52 228.81-1.46L228.81-1.46Q225.73 3.37 223.90 3.74Q222.07 4.10 221.78 4.10L221.78 4.10Q219.14 4.10 217.53 0.73L217.53 0.73Q217.09-0.15 217.09-1.03L217.09-1.03Q217.09-1.61 217.31-2.56Q217.53-3.52 219.87-7.03L219.87-7.03Q221.19-9.38 222.66-11.72Q224.12-14.06 224.71-15.67L224.71-15.67Q226.03-18.31 228.74-25.71Q231.45-33.11 232.03-34.72L232.03-34.72Q231.74-34.72 230.20-34.79Q228.66-34.86 226.17-34.86L226.17-34.86Q222.51-34.86 221.34-34.50Q220.17-34.13 219.58-32.52L219.58-32.52Q219.14-31.49 217.31-28.34Q215.48-25.20 212.84-21.24L212.84-21.24Q210.21-17.58 207.28-13.18Q204.35-8.79 202.44-6.15L202.44-6.15Q199.37-0.88 195.92 2.56Q192.48 6.01 190.58 6.01L190.58 6.01Q189.11 5.71 188.82 3.66Q188.53 1.61 188.53 0.73L188.53 0.73Q188.53-1.61 189.26-3.81L189.26-3.81Q190.58-6.74 194.46-13.48Q198.34-20.21 202.73-26.95L202.73-26.95Q204.35-29.44 205.15-31.20Q205.96-32.96 205.96-33.54L205.96-33.54Q205.96-33.69 205.96-33.84L205.96-33.84Q205.08-34.72 203.54-34.79Q202.00-34.86 201.71-34.86L201.71-34.86Q199.22-34.86 197.46-34.13L197.46-34.13Q196.73-33.84 194.97-31.86Q193.21-29.88 191.46-27.25L191.46-27.25Q185.60-19.34 183.03-17.21Q180.47-15.09 178.42-15.09L178.42-15.09Q178.13-15.09 177.69-15.09L177.69-15.09Q173.14-16.11 173.14-19.04L173.14-19.04Q173.14-19.34 173.14-19.63ZM190.58-95.80L190.58-95.80Q190.58-95.65 190.58-95.51L190.58-95.51Q190.58-91.41 194.97-90.60Q199.37-89.79 225.44-89.79L225.44-89.79L258.40-89.79L258.40-100.34L224.85-100.63Q220.02-100.63 215.92-100.63L215.92-100.63Q197.61-100.63 193.87-100.12Q190.14-99.61 190.14-97.56L190.14-97.56Q190.14-96.83 190.58-95.80ZM192.19-78.37L192.48-75.73Q192.48-74.71 192.63-73.54Q192.77-72.36 193.07-71.78L193.07-71.78Q192.92-71.34 192.92-71.04L192.92-71.04Q192.92-68.99 197.61-68.41Q202.29-67.82 223.83-67.68L223.83-67.68Q236.28-67.38 245.07-67.09Q253.86-66.80 254.74-66.50L254.74-66.50Q254.88-66.50 255.03-66.50L255.03-66.50Q255.76-66.50 256.13-67.16Q256.49-67.82 257.08-70.46L257.08-70.46Q257.08-72.36 257.37-74.05Q257.67-75.73 257.67-76.61L257.67-76.61Q257.81-76.76 257.81-76.90L257.81-76.90Q257.81-77.93 252.54-78.15Q247.27-78.37 224.85-78.37L224.85-78.37L192.19-78.37ZM322.56-57.57L322.56-57.57Q323.73-58.89 326.37-59.33Q329.00-59.77 338.38-59.77L338.38-59.77Q344.24-59.77 348.49-59.99Q352.73-60.21 353.17-60.50L353.17-60.50Q353.76-60.79 354.79-62.48Q355.81-64.16 356.84-66.36L356.84-66.36Q360.64-73.10 363.28-76.83Q365.92-80.57 367.38-80.86L367.38-80.86Q368.26-81.01 369.07-81.15Q369.87-81.30 370.02-81.30L370.02-81.30Q371.19-81.30 372.73-79.47Q374.27-77.64 374.56-76.32L374.56-76.32Q374.56-75.73 373.61-73.39Q372.66-71.04 371.19-68.12L371.19-68.12Q369.87-65.19 369.29-63.35Q368.70-61.52 368.70-60.94L368.70-60.94Q368.70-60.79 368.70-60.79L368.70-60.79Q369.29-60.50 371.41-60.42Q373.54-60.35 374.71-60.35L374.71-60.35Q377.05-60.35 380.13-60.50L380.13-60.50L390.67-60.79L390.67-63.43Q390.97-69.73 393.46-71.85Q395.95-73.97 397.85-73.97L397.85-73.97Q399.61-73.97 401.66-72.66L401.66-72.66Q402.83-71.78 403.05-70.39Q403.27-68.99 403.27-66.06L403.27-66.06L402.98-60.79L414.11-60.50Q418.80-60.21 422.68-59.84Q426.56-59.47 427.59-58.89L427.59-58.89Q429.64-57.57 429.93-56.32Q430.22-55.08 430.22-54.64L430.22-54.64Q430.22-53.03 429.20-51.56L429.20-51.56L427.59-49.22L413.53-49.37L399.90-49.37L395.36-38.67Q393.60-33.84 391.85-30.03Q390.09-26.22 389.36-24.90L389.36-24.90L387.45-22.27L390.67-19.63Q391.99-18.60 395.29-16.85Q398.58-15.09 402.25-13.62L402.25-13.62Q411.77-9.81 415.58-7.32Q419.38-4.83 421.00-1.46L421.00-1.46Q422.61 1.17 422.68 1.83Q422.75 2.49 422.75 2.49L422.75 2.49Q422.75 3.66 422.02 4.39L422.02 4.39Q421.00 5.71 419.82 5.79Q418.65 5.86 418.51 5.86L418.51 5.86Q416.60 5.86 414.84 4.69L414.84 4.69Q414.11 3.81 410.96 2.49Q407.81 1.17 404.15-0.44L404.15-0.44Q400.20-1.90 395.58-3.81Q390.97-5.71 388.04-7.03L388.04-7.03Q385.11-8.50 382.84-9.30Q380.57-10.11 380.13-10.40L380.13-10.40Q379.83-10.11 378.22-9.30Q376.61-8.50 374.85-7.03L374.85-7.03Q372.66-5.71 368.99-3.59Q365.33-1.46 361.67 0.44L361.67 0.44Q348.78 6.74 343.80 7.69Q338.82 8.64 337.06 8.64L337.06 8.64Q332.81 8.64 331.35 6.15L331.35 6.15Q330.32 4.83 330.32 3.52L330.32 3.52Q330.32 2.49 331.64 1.03Q332.96-0.44 338.23-2.20L338.23-2.20Q343.51-4.10 354.27-9.23Q365.04-14.36 367.68-16.41L367.68-16.41Q367.97-16.55 367.97-16.85L367.97-16.85Q367.97-17.43 366.50-18.38Q365.04-19.34 359.47-21.68L359.47-21.68Q355.52-23.58 352.00-24.76Q348.49-25.93 347.17-25.93L347.17-25.93Q344.97-25.93 344.09-26.44Q343.21-26.95 342.33-28.56L342.33-28.56Q341.75-30.18 341.75-31.64L341.75-31.64Q341.75-31.93 341.82-32.89Q341.89-33.84 343.65-38.67L343.65-38.67Q346.00-44.53 346.00-46.88L346.00-46.88Q346.00-47.75 345.48-48.49Q344.97-49.22 340.58-49.22L340.58-49.22Q338.38-49.22 335.30-48.93L335.30-48.93Q331.79-48.63 329.15-48.63L329.15-48.63Q325.63-48.63 323.44-49.29Q321.24-49.95 321.09-53.17L321.09-53.17Q320.95-53.61 320.95-54.05L320.95-54.05Q320.95-55.81 322.56-57.57ZM320.07-96.24L320.07-96.24Q323.44-99.02 342.33-99.02L342.33-99.02Q348.19-99.32 353.98-99.39Q359.77-99.46 362.99-99.46L362.99-99.46Q367.38-99.46 368.63-99.76Q369.87-100.05 369.87-100.93L369.87-100.93Q369.87-100.93 369.87-101.07L369.87-101.07Q369.58-103.27 369.58-105.32L369.58-105.32Q369.58-107.23 369.95-109.72Q370.31-112.21 371.34-113.23L371.34-113.23Q371.92-113.96 372.66-114.18Q373.39-114.40 373.68-114.40L373.68-114.40Q373.97-114.40 374.27-114.26L374.27-114.26Q374.85-113.96 375.51-113.89Q376.17-113.82 376.46-113.82L376.46-113.82Q377.93-113.82 379.17-111.40Q380.42-108.98 380.86-105.03L380.86-105.03L381.45-99.32L405.47-99.76Q416.16-100.20 421.73-100.20L421.73-100.20Q424.51-100.20 427.51-99.98Q430.52-99.76 430.96-98.73L430.96-98.73Q432.28-97.41 432.28-94.26Q432.28-91.11 430.52-81.88L430.52-81.88Q429.20-73.97 427.81-71.56Q426.42-69.14 423.63-69.14L423.63-69.14Q423.49-69.14 423.34-69.14L423.34-69.14Q419.97-69.14 419.02-71.92Q418.07-74.71 418.07-77.34L418.07-77.34Q418.07-79.98 418.80-83.64L418.80-83.64Q419.38-85.55 419.46-86.43Q419.53-87.30 419.53-87.60L419.53-87.60Q419.53-88.33 419.38-88.48L419.38-88.48Q417.33-88.62 411.77-88.62L411.77-88.62Q400.34-88.62 367.97-88.11Q335.60-87.60 329.15-87.45L329.15-87.45Q329.00-87.30 329.00-86.13L329.00-86.13Q329.00-85.55 329.08-83.86Q329.15-82.18 329.44-78.22L329.44-78.22Q329.88-74.27 329.88-72.07L329.88-72.07Q329.88-71.04 329.66-69.73Q329.44-68.41 328.13-67.38L328.13-67.38Q326.37-65.48 325.42-65.41Q324.46-65.33 324.32-65.33L324.32-65.33Q322.71-65.33 321.09-66.50L321.09-66.50Q319.92-67.38 319.41-70.17Q318.90-72.95 318.46-80.27L318.46-80.27Q317.72-84.96 317.72-88.18L317.72-88.18Q317.72-94.48 320.07-96.24ZM356.54-36.91L356.54-36.91Q357.42-36.18 358.74-35.74L358.74-35.74Q360.06-34.86 362.99-33.47Q365.92-32.08 368.70-30.18L368.70-30.18Q371.63-28.56 373.75-27.76Q375.88-26.95 376.46-26.95L376.46-26.95Q376.61-26.95 376.61-26.95L376.61-26.95Q377.93-28.27 381.15-35.45Q384.38-42.63 385.40-46.58L385.40-46.58L385.84-49.22L360.35-49.22L358.01-43.95Q356.84-41.46 356.18-39.77Q355.52-38.09 355.52-37.79L355.52-37.79Q355.52-37.50 356.54-36.91Z"/>
    </svg>
        