<svg width="152" height="152" version="1.1" xmlns="http://www.w3.org/2000/svg" xmlns:xlink="http://www.w3.org/1999/xlink"><path d="M76 27.29L74.18 27.29Q69.01 25.32 62.32 17.11L62.32 17.11Q60.95 15.59 60.65 15.13L60.65 15.13L60.04 12.40Q64.45 9.81 71.90 13.92L71.90 13.92Q77.06 16.81 78.74 20.76L78.74 20.76L79.19 23.04Q79.19 26.84 76 27.29L76 27.29ZM119.78 42.04L119.78 42.04Q119.17 43.71 115.82 44.77L115.82 44.77Q101.08 50.55 95 54.65L95 54.65Q94.54 54.96 94.24 55.26L94.24 55.26L92.42 55.26L92.42 53.29L99.86 38.85Q99.86 37.63 98.95 36.72L98.95 36.72Q75.70 37.78 52.29 43.86L52.29 43.86L43.32 46.45L39.06 46.90L34.96 60.28Q33.44 63.77 31.01 65.90L31.01 65.90Q27.97 65.60 26.45 60.89L26.45 60.89Q25.84 58.91 25.54 58.30L25.54 58.30Q25.54 54.81 29.49 49.33L29.49 49.33Q32.07 45.53 32.53 43.10L32.53 43.10L33.29 36.87Q33.44 36.57 33.44 36.26L33.44 36.26Q36.48 36.26 39.06 41.28L39.06 41.28L41.34 41.28L88.16 32.77Q101.69 30.64 105.94 31.70L105.94 31.70Q109.74 32.61 119.78 42.04ZM133.91 77.00L133.91 77.00Q133.91 78.82 132.70 79.28L132.70 79.28Q106.10 77.45 94.54 78.52L94.54 78.52Q91.20 78.82 88.16 79.28L88.16 79.28Q80.71 98.43 76.30 106.03L76.30 106.03L99.41 117.28Q102.14 118.65 105.49 125.64L105.49 125.64Q109.74 134.76 105.34 135.97L105.34 135.97L104.12 136.13Q101.84 136.13 99.41 134.45Q96.98 132.78 91.50 127.77L91.50 127.77Q79.80 117.89 71.44 112.41L71.44 112.41Q55.94 127.31 32.53 126.40L32.53 126.40Q31.16 126.25 29.94 126.25L29.94 126.25L29.94 125.49Q51.53 118.19 61.86 110.29L61.86 110.29Q63.23 109.22 64.45 108.16L64.45 108.16Q54.57 101.62 44.99 99.65L44.99 99.65Q42.26 97.67 48.18 87.49L48.18 87.49Q49.55 85.21 49.86 84.45L49.86 84.45Q37.85 85.51 24.78 89.77L24.78 89.77L18.24 92.20Q17.33 92.35 16.57 92.35L16.57 92.35Q13.22 92.35 8.36 88.55L8.36 88.55Q6.23 86.88 5.93 85.66L5.93 85.66Q6.08 84.45 7.60 83.84L7.60 83.84Q9.88 83.23 19.46 83.08L19.46 83.08Q21.58 83.08 23.10 82.93L23.10 82.93L50.31 78.97Q51.07 78.97 51.83 78.82L51.83 78.82Q59.13 62.86 55.63 55.41L55.63 55.41Q56.09 51.92 61.86 55.41L61.86 55.41Q66.73 58.45 67.79 61.49L67.79 61.49Q68.10 62.41 67.79 63.01L67.79 63.01L64.75 67.27Q63.54 69.40 60.04 77.61L60.04 77.61Q60.80 77.61 74.02 75.93L74.02 75.93Q76.15 75.63 77.98 75.48L77.98 75.48L76.91 71.68Q76.76 70.61 77.67 70.31L77.67 70.31Q80.56 69.40 86.64 72.44L86.64 72.44Q88.46 73.35 89.38 74.11L89.38 74.11L109.44 70.77L118.56 68.64L118.86 68.64Q124.49 68.18 131.18 74.11L131.18 74.11Q132.70 75.48 133.91 77.00ZM78.13 80.80L78.13 80.80Q67.79 81.71 57.46 83.53L57.46 83.53L52.74 93.26Q52.14 96.15 53.20 96.61L53.20 96.61L69.16 102.53Q76.30 92.65 78.13 80.80Z" stroke="#000" fill="black" /></svg>