<svg width="152" height="152" version="1.1" xmlns="http://www.w3.org/2000/svg" xmlns:xlink="http://www.w3.org/1999/xlink"><path d="M81.78 70.73L81.78 70.73Q79.34 70.73 77.37 65.72L77.37 65.72Q75.24 60.25 73.57 59.64L73.57 59.64Q72.35 59.03 70.53 59.94L70.53 59.94Q62.47 60.55 55.33 62.22L55.33 62.22Q54.87 65.26 54.26 65.87L54.26 65.87Q51.38 65.87 49.25 61.31L49.25 61.31L48.79 60.40L47.27 38.36Q46.21 30.30 44.08 24.53L44.08 24.53Q42.41 20.88 42.41 20.42L42.41 20.42Q42.41 19.66 43.02 19.36L43.02 19.36Q46.82 19.66 50.16 22.40L50.16 22.40Q59.74 21.33 69.77 18.45L69.77 18.45L77.98 15.56Q78.43 15.41 78.74 15.41L78.74 15.41Q81.62 14.95 88.92 18.29L88.92 18.29Q91.35 19.36 92.57 20.27L92.57 20.27Q93.94 21.33 93.94 23.01L93.94 23.01Q93.94 24.07 93.48 24.68L93.48 24.68Q90.44 29.39 89.07 36.53L89.07 36.53L87.10 58.12L85.58 64.96Q84.06 69.37 81.78 70.73ZM80.86 24.83L80.86 24.83L79.95 23.01Q75.54 21.03 62.47 24.37L62.47 24.37Q55.48 26.20 52.90 26.50L52.90 26.50L53.50 40.33L65.36 36.84Q72.05 35.47 76.30 38.66L76.30 38.66Q76.30 40.18 75.24 41.25L75.24 41.25Q59.89 44.44 55.78 44.59L55.78 44.59Q54.57 44.74 53.50 44.74L53.50 44.74Q54.26 47.93 55.33 57.36L55.33 57.36L71.44 54.01Q73.42 53.71 74.33 54.01L74.33 54.01L77.52 55.84Q78.28 55.99 78.58 55.38L78.58 55.38Q79.65 49.30 80.71 27.41L80.71 27.41Q80.71 26.05 80.86 24.83ZM121.45 87.15L121.45 87.15L116.74 92.17L115.06 95.21Q114.76 95.81 114.46 96.57L114.46 96.57L107.92 117.09Q96.37 148.86 81.02 148.86L81.02 148.86Q79.65 147.34 77.22 142.17L77.22 142.17L76.91 141.57Q74.48 136.70 70.38 131.69L70.38 131.69L70.38 131.08Q71.74 131.08 78.89 133.21L78.89 133.21Q85.27 135.03 88.16 132.29L88.16 132.29Q98.04 122.72 103.21 93.69L103.21 93.69Q103.51 91.56 103.82 89.58L103.82 89.58Q104.58 85.17 103.82 83.65L103.82 83.65Q100.17 81.37 87.25 83.35L87.25 83.35L82.54 84.26Q84.06 86.39 86.18 91.56L86.18 91.56Q84.21 95.36 77.52 102.65L77.52 102.65Q76.76 103.57 76.30 104.17L76.30 104.17Q58.52 124.24 45.90 131.69L45.90 131.69Q37.09 136.70 28.88 137.46L28.88 137.46Q27.82 137.61 26.90 137.31L26.90 137.31Q26.60 137.16 26.14 136.85L26.14 136.85Q26.75 135.49 40.13 128.19L40.13 128.19Q42.10 126.97 42.86 126.52L42.86 126.52Q52.29 119.68 63.54 106.76L63.54 106.76Q76.30 92.47 76.46 85.17L76.46 85.17Q64.90 85.93 57.76 87.45L57.76 87.45Q60.65 89.13 60.65 91.56L60.65 91.56Q60.50 92.77 56.39 96.27L56.39 96.27L55.63 97.03Q47.73 104.63 37.39 110.25L37.39 110.25Q29.18 114.81 25.23 113.90L25.23 113.90L25.23 113.45Q40.43 103.57 46.21 96.42L46.21 96.42Q49.40 92.47 51.22 88.37L51.22 88.37L42.10 87.00Q41.34 86.85 40.74 86.54L40.74 86.54L29.79 93.23Q24.17 96.12 18.39 96.12L18.39 96.12Q30.86 86.09 32.38 84.72L32.38 84.72Q40.58 77.12 43.47 69.82L43.47 69.82Q45.75 68.91 50.62 71.04L50.62 71.04Q51.83 71.49 52.59 71.80L52.59 71.80L53.96 73.01Q53.96 76.21 48.79 80.01L48.79 80.01L45.30 83.05L44.69 83.65Q63.84 82.13 83.75 78.49L83.75 78.49L99.86 75.60Q101.08 75.45 102.14 75.29L102.14 75.29Q107.62 74.99 114.91 79.40L114.91 79.40Q121.45 83.20 121.45 87.15Z" stroke="#000" fill="black" /></svg>