<svg width="152" height="152" version="1.1" xmlns="http://www.w3.org/2000/svg" xmlns:xlink="http://www.w3.org/1999/xlink"><path d="M134.22 52.64L134.22 52.64Q134.22 53.86 131.94 54.62L131.94 54.62L121.45 55.38L119.02 55.84L119.47 88.21L120.84 112.99L120.84 113.14Q120.84 121.96 118.26 128.34L118.26 128.34Q116.74 131.99 114.76 131.99L114.76 131.99Q113.54 131.99 107.77 124.84L107.77 124.84Q104.73 120.89 103.66 120.13L103.66 120.13L97.74 115.57Q96.67 114.51 96.06 113.29L96.06 113.29Q97.43 112.84 107.01 114.51L107.01 114.51Q108.98 114.81 109.90 114.96L109.90 114.96Q111.72 114.20 112.33 111.62L112.33 111.62L112.33 56.75Q110.05 56.75 101.08 59.03L101.08 59.03L95.30 59.94Q91.50 60.09 88.46 58.42L88.46 58.42L87.70 56.75Q93.02 54.92 111.26 50.97L111.26 50.97Q111.72 50.97 112.02 50.82L112.02 50.82L112.02 28.93Q112.02 24.98 108.68 20.72L108.68 20.72Q107.46 19.05 107.31 18.14L107.31 18.14Q106.86 13.12 117.19 18.60L117.19 18.60Q120.69 20.57 121.90 21.64L121.90 21.64Q121.90 22.40 120.69 29.54L120.69 29.54Q120.54 30.00 120.54 30.15L120.54 30.15Q119.32 37.90 119.32 48.24L119.32 48.24L124.34 47.63Q128.59 47.63 132.70 51.12L132.70 51.12Q133.76 51.88 134.22 52.64ZM105.49 80.61L105.49 80.61Q106.10 84.41 105.34 86.54L105.34 86.54L104.73 87.60Q103.82 88.36 102.30 88.21L102.30 88.21L100.93 87.60L100.78 87.45L92.11 74.99Q92.11 73.32 92.87 72.56L92.87 72.56Q101.54 74.68 105.49 80.61ZM48.18 29.69L48.18 29.69Q47.58 30.76 43.78 30.76L43.78 30.76L31.62 20.88Q31.16 20.57 30.86 20.27L30.86 20.27Q30.86 17.99 31.62 17.38L31.62 17.38L41.04 18.90Q45.90 20.27 47.58 23.16L47.58 23.16Q48.18 24.68 48.18 29.69ZM86.18 80.31L85.73 81.07L86.94 113.90Q86.94 116.33 86.79 118.61L86.79 118.61Q86.49 125.15 80.41 131.23L80.41 131.23Q77.37 130.47 72.50 125.60L72.50 125.60Q70.98 123.93 70.07 123.17L70.07 123.17L63.54 118.00Q62.78 117.24 62.17 116.48L62.17 116.48Q62.93 116.33 76.30 118.16L76.30 118.16Q78.89 112.23 78.89 89.12L78.89 89.12Q61.41 107.97 51.07 114.66L51.07 114.66Q41.95 120.74 35.26 120.59L35.26 120.59L35.26 120.13Q57.30 103.56 66.88 92.77L66.88 92.77Q73.11 85.93 77.22 78.94L77.22 78.94L76.30 78.94Q62.78 84.72 59.43 86.69L59.43 86.69Q57.61 87.76 56.09 88.82L56.09 88.82L55.02 88.82L49.70 85.32Q48.18 83.96 48.18 81.98L48.18 81.98Q49.86 81.22 56.39 80.31L56.39 80.31Q57.15 80.16 57.76 80.16L57.76 80.16L56.85 44.89Q56.70 41.40 54.11 33.04L54.11 33.04Q54.57 32.12 57.61 32.58L57.61 32.58L59.89 34.25Q65.06 25.44 67.03 17.68L67.03 17.68Q67.34 16.32 67.34 15.40L67.34 15.40L67.18 11.91L67.18 11.76Q67.18 7.96 76.15 12.52L76.15 12.52Q78.58 13.58 79.34 14.34L79.34 14.34L79.04 16.01L69.16 26.04Q65.66 29.84 63.69 33.49L63.69 33.49Q68.25 33.49 76.30 29.39L76.30 29.39Q82.54 29.54 88.46 35.47L88.46 35.47Q88.46 36.99 86.94 39.72L86.94 39.72Q86.34 45.65 85.88 67.69L85.88 67.69Q85.73 70.43 85.73 72.71L85.73 72.71Q88.77 75.44 88.77 75.90L88.77 75.90Q89.07 76.66 86.18 80.31L86.18 80.31ZM62.93 78.64L78.89 74.38Q79.19 71.80 78.89 64.35L78.89 64.35L78.58 40.64L78.58 40.48Q78.58 36.99 75.70 35.92L75.70 35.92Q74.78 35.62 73.72 35.92L73.72 35.92Q65.21 38.05 63.38 38.36L63.38 38.36L62.93 48.84Q74.02 45.50 76.46 50.82L76.46 50.82L76 51.43Q73.87 52.34 66.42 53.10L66.42 53.10L62.93 53.71L63.08 62.37Q68.70 59.94 73.42 61.00L73.42 61.00Q76.76 61.76 76.76 64.80L76.76 64.80Q74.33 66.02 67.03 66.63L67.03 66.63Q64.60 66.93 62.93 67.39L62.93 67.39L62.93 78.64ZM52.44 41.55L52.44 41.55Q52.44 43.37 50.31 43.83L50.31 43.83L39.06 46.11Q37.09 46.56 19.46 51.73L19.46 51.73Q15.05 53.10 10.64 51.73L10.64 51.73Q7.45 50.82 5.62 48.69L5.62 48.69Q5.62 47.02 6.54 46.26L6.54 46.26Q17.18 45.35 31.62 41.70L31.62 41.70L42.41 38.96Q42.86 38.81 43.32 38.81L43.32 38.81Q46.36 38.36 49.10 39.42L49.10 39.42Q51.22 40.18 52.44 41.55ZM45.14 57.20L45.14 57.20Q45.14 59.18 42.86 59.94L42.86 59.94Q32.53 63.28 31.01 63.59L31.01 63.59Q24.62 64.80 20.82 62.37L20.82 62.37L20.52 61.76Q20.67 61.16 21.74 60.55L21.74 60.55Q22.80 60.40 31.62 57.20L31.62 57.20Q41.19 53.71 45.14 57.20ZM44.69 71.19L45.14 71.80L44.69 73.77Q43.17 73.92 34.50 76.96L34.50 76.96Q25.99 79.85 20.52 76.66L20.52 76.66Q20.52 75.14 22.95 74.68L22.95 74.68L36.18 70.12Q38 69.67 39.52 69.67L39.52 69.67Q42.26 69.67 44.69 71.19L44.69 71.19ZM48.49 88.36L48.49 88.36Q48.49 89.73 46.36 92.62L46.36 92.62Q45.45 93.84 45.14 94.75L45.14 94.75L42.56 102.80L44.99 104.32Q45.45 104.93 45.45 105.69L45.45 105.69L44.38 106.45Q34.66 107.67 25.23 110.10L25.23 110.10Q25.99 116.18 24.47 118.16L24.47 118.16Q20.67 116.94 19.46 110.40L19.46 110.40Q17.48 98.55 13.07 89.73L13.07 89.73Q13.07 88.52 13.83 87.91L13.83 87.91Q17.94 88.21 20.98 89.58L20.98 89.58Q34.35 85.32 38.61 83.20L38.61 83.20Q42.10 83.20 47.73 87.76L47.73 87.76Q48.18 88.21 48.49 88.36ZM37.70 91.86L37.70 90.49Q35.87 88.67 24.47 92.16L24.47 92.16Q23.56 92.47 22.95 92.62L22.95 92.62Q23.41 99.16 24.78 105.39L24.78 105.39L36.02 101.89L37.70 91.86Z" stroke="#000" fill="black" /></svg>