<svg xmlns="http://www.w3.org/2000/svg" width="518" height="411" viewBox="0 0 516.99 409.64"><defs><style>.cls-1{fill:#f67175;}.cls-2{fill:#fff;}.cls-3{fill:#00918b;}.cls-4{fill:#ffe400;}.cls-5{fill:#ffb000;}.cls-6{fill:#283f6a;}</style></defs><g id="フッター"><g id="ラム3"><path class="cls-1" d="M508.85,62.94c-5.36-11.88-12-21.68-26-35.57S452.38,7.88,441.19,4.31s-16.27-1.48-29,1.73S393.3,9.39,386.55,11.8,373,22.66,373,22.66c1.7-3.94,6.45-8.34,9.42-10.29,2.2-1.44,2.93-2,2.39-2.23s-4.46,1.54-4.46,1.54c-9.89,4.74-25,18.6-31.43,32.52a60.14,60.14,0,0,0-3.48,39.05c2.68,11.08,6.6,18.25,9.86,24.77s1.72,10.36,1.57,11.59c-.09.74-.25,1.32-.29,1.68a16.71,16.71,0,0,0-4.72-.77,7.85,7.85,0,0,0-3.65-3.7s-1.28-.69-2.13,1c-.69,1.36-1.14,2.92-1.6,4-6.91,2.31-14.24,9.71-18.71,13.68s-7.93,7.6-9.53,15.14,4,17.79,4.28,18.7c.11.29.29.75.5,1.23l-.51,1a.71.71,0,0,0-.18.21s-4.14,6.67-5.44,10.12a34.87,34.87,0,0,0,.63,27,37.44,37.44,0,0,0,8,9.44,27.35,27.35,0,0,0,4.75,3c-.44.2-1.09.48-1.72.69a14.45,14.45,0,0,1-6.14.46c-4.89-.69-6.76-2.95-9.76-3.5-2.46-.45-7.3,1.58-9.86,2.93s-3.48,3.64-4.53,5.15a10.58,10.58,0,0,1-1.64,1.69,31.23,31.23,0,0,0-4.87,1.29c-.88.22-1.88.41-2.91.59a14.52,14.52,0,0,0-7,.92c-.91.25-3.89,3.73-4.93,7.1a16.44,16.44,0,0,0-.56,9.06c-2.22,1.8-8.07,6.53-10.63,8.26-3.66,2.5-6,4.06-7.39,5s-2.84,1.71-3.58,2.14c-4.19-7.29-9.74-17.68-9.74-17.68-5.12-9.5-9.75-17.18-11.2-19.76s-13-22.2-16.84-25.66c-4.19-3.74-11.33-6.19-13.24-6.55a7.38,7.38,0,0,0-2.8-.1,22,22,0,0,0-1-2.36,15.83,15.83,0,0,0-1.69-3.1c-.82-1.17-4.5-5.48-7-6.6s-7.9-.77-7.9-.77-2.62-1.44-9.79-2.48-30.47-6.86-38.89-8.84a219.85,219.85,0,0,1-24.84-8c-8.28-3-35-14.31-38.94-17.12S56,133.49,49.9,129s-9.38-7.32-12.2-11a25,25,0,0,0-8-6.55c-4.41-2.52-5.45-1.23-5.74.85a14.11,14.11,0,0,0,.81,7.8c1.32,3.79,4.57,8,5.76,10.14.89,1.63,2.7,5.47,3.55,7.27a61.14,61.14,0,0,1-9.29-7.82c-3.72-4.23-6.66-7-9.47-8.67S9,118,8.26,121.27s1.75,5.37,4.37,16c2.18,8.78,6,11.46,13.69,20.69,5.62,6.74,11.15,20.88,13,25.92s4.6,5.79,4.6,5.79c6.54,3.15,15.34-1,18.42-2.41,0,0,.27-.14.64-.36,2.94-1.38,4-2.42,4.34-2.84.5.4.9.69.9.69,5.84,3.8,13.35,7.67,28.22,12.09,13.4,4,36.26,19.9,44.25,24.26a84.23,84.23,0,0,0,21.78,8.67,71.83,71.83,0,0,0,10.44,1c0,.56,0,1.25,0,2.07a24.64,24.64,0,0,0-.14,3.32,176.27,176.27,0,0,0,2.56,27.64c1.77,11,3.86,20.35,5.33,27.11-.68-.58-1.59-1.2-1.93-1.57-.5-.54-4.24-3.4-5.44-4.43a14.67,14.67,0,0,1-3.54-4.1c-.3-.65-5.25-8.61-6.17-10.65s-1.86-2.76-3.17-2.28-.93,2.81-.93,2.81c-.78-1.75-1.76-1.57-1.76-1.57s-1.93-.11-1.24,4.31c.61,3.93,3.83,7.79,5,10.36a48.84,48.84,0,0,0,4.75,7.64c.9,1.09,2.33,4.08,1,4.08s-6.41-4.41-8.3-5.58-2.82-1-3.25.05,1.29,3.39,3.26,6.6,4.5,4.95,6.11,6.78a12.7,12.7,0,0,0,5.61,3.78,33.85,33.85,0,0,0,6.37,1.48l.2,0c.62.17,1.23.31,1.82.43a11,11,0,0,0,2.34.39,17.49,17.49,0,0,0,3.37.2,57.62,57.62,0,0,0,3.16,9.11c1.93,4.1,3.45,9.95,12.1,16.4,5.5,4.11,12.72,6.58,15.63,7.83l8.67,3.75s1.51,1.07,7.43,7.54c2.47,2.7,6.73,6.3,10.11,7.83.51.22,1,.39,1.39.53l.69.19c.19,0,.36.08.54.11a16.68,16.68,0,0,0,7.34-.46,19.36,19.36,0,0,0,7.73,6.19c.81.52,3.27,1.59,7.71,1.78,0,0,1.63-.16,1.57-.65s-4.18-1.75-4.49-2.61,4.6,1.71,12.26.05c0,0,5-1.3,4.89-2.5s-1.21-.18-3.95-.95-3.06-1-2-1.19a31.24,31.24,0,0,0,14.72-9.18c3.88-4.54,5.39-8.3,5.66-11.79a18.81,18.81,0,0,0,3.33-3.64,19.65,19.65,0,0,0,1.27-1.91c.34-.54.54-.89.55-.92v0h0A67.3,67.3,0,0,0,306,324.14c2.11-6.27,4.3-12.66,5.49-14.3A18,18,0,0,1,317,305.4c1.36-.59,15.6-8.87,16.74-9.51s7-4.86,7.5-5.33a10.83,10.83,0,0,1,1.08-.85s-.93,14.14-1.1,17.14a68.92,68.92,0,0,1-2,12.48c-1.18,4.47-4.32,13.75-4.75,21s2.41,24.82,2.68,32.18a32.54,32.54,0,0,0,.55,4.18c.16,1.28.39,2.47.51,3.12a8.24,8.24,0,0,0-2.1-2.14c-3.32-2.18-4.68-.82-5.21-.06s1.43,4.32,2.29,6.56,2.27,8.28,2.68,9.78,2.92,7.49,5.08,9.5,8.15,2.22,9.74,3,5.86,3.35,7.8,3.19a12.43,12.43,0,0,0,8.38-6,76.45,76.45,0,0,1,5.45-8.67c.73-1.09,4.09-4.18,6.31-6.32s2.46-3.61,2.18-4.17-1.13-.84-2.28-.4a24.75,24.75,0,0,0-5.67,4c-2.05,1.84-2.7,2.27-4,3.25l-.48.4c-1,.73-1.13-.23-1-1.33.49-1,1-2.15,1.29-3,.68-1.72,4.41-8.61,5.75-11.15s3.68-7.52,4.2-9.83-.93-2.93-.93-2.93c1.46-2.57,1-5.76-.26-6.06s-2.21,1.25-2.9,2.46-5.1,5.61-5.1,5.61.92-1.79,1.51-3.35.07-3.47-.92-3.83-3.14,2.52-4.27,4-7.22,7.21-8.36,8.16l-1.22,1.06c.36-.9.31-2.22.74-3.3.63-1.54,3.26-17.45,5.91-26.54s1.05-15.56,1.29-21.41,3.05-17.64,4.26-22,5-14.87,6.66-20.87a114.67,114.67,0,0,0,3.85-18.82c.48-5.6-1.77-12.62-3.64-17.41-.16-.39-.36-.71-.53-1.08a21.49,21.49,0,0,0,10,4.59c7.47,1.48,17.77,1.23,28.05-8.22,1.63-.11,2.91-.23,3.9-.35a11.7,11.7,0,0,0,2.51,0c3.91-.51,13.84-3.31,13.84-3.31a95.14,95.14,0,0,0,27.91-13.45c12-8.8,15.89-15.74,19-20.29s6-11.78,14.73-22S505.29,162.2,508.69,153s5.62-25.94,5.7-29.45,3.53-10.62,2.36-24.07S514.2,74.83,508.85,62.94Z"/><path class="cls-2" d="M2.62,126c-.37-.5-2.15-5.54-1.74-6.53s1.16-1.67,3.61-1a18.56,18.56,0,0,1,7.38,4.53c1.39,1.63,6.26,6.47,8.68,8.79s11.3,8.32,11.3,8.32l17.62,8.32-8.53-.09-20.55-6.66Z"/><path class="cls-2" d="M16.74,116a15.23,15.23,0,0,1-.3-4.63c.31-1.62.18-3.37,3.64-2.13a23.81,23.81,0,0,1,8.82,6.07c1.82,2.06,3.68,5.39,7,7.65S42,127.59,42,127.59s-10.68-1.11-10.91-1.22S16.74,116,16.74,116Z"/><path class="cls-2" d="M351.76,224.85,354,221.3,366,233.13l32.77.11s2.27,1.4,22.33-2.79a89.4,89.4,0,0,0,34.59-16.09L441.85,5.57,430.54,1.85,422.35.41A74.12,74.12,0,0,0,412.16,2c-7,1.45-21.14,4.64-31.31,7.25s-17.13,12.83-17.13,12.83l1.53-3.25L368,14.92l5.8-5.6c-5.83.56-21.09,16.13-21.09,16.13l-4.25,94-5.32-1a6.82,6.82,0,0,0-2.26-2.32c-1.83-1.34-2.8.15-2.8.15l-1.61,3.93s-6.48,2.48-8.7,5-8.2,4.81-14.66,13.57,1.12,29.37,1.12,29.37a78.51,78.51,0,0,0-5.44,8c-2.46,4.23-4.36,10.09-3.2,22.46s15.23,20.16,15.23,20.16,0,.51-3.78,1.74-9-.64-11.48-2.16-4-1.34-8.62-.13-6.19,3.29-6.69,4.14-3.2,4.38-3.2,4.38-4.5,1.41-5.72,1.67-8.25.93-8.25.93-.76-1.22-3.59,2.79-2.21,13.49-2.21,13.49c-1.38,2.11-22.68,16.36-22.68,16.36s-14.92-27-16.75-30.1-15.74-27.23-20.3-32.51S191,191.61,191,191.61c-2.44-5.26-7.15-10.17-9.81-11.8s-7-.75-7-.75-.56.51-2.08-.24-25-5.83-25-5.83l-.47,9.67s19.53,39.33,18.73,44.66,2,31.71,2.52,34.59,5.67,27.81,5.67,27.81l-11-9.36s-7.06-11.87-7.66-13-1.57-1.94-2.69-1.42-.25,4.7-.25,4.7l-1.5-2.8s-2.05-1.44-2,1.72,4.62,10.63,5.55,12.53,7.35,10,6.28,11.29-7-3.7-7-3.7-4.46-3.33-5.15-1.88,5.13,8.93,5.13,8.93,4.15,4,6,5.62,7.35,2.38,9.2,2.94a80.1,80.1,0,0,0,8.64,1.12c1.17,4.82,3.51,9,6.83,15.78s12.62,12.21,13.83,13.22,14.83,5.51,19.48,8.67,13.43,13.34,17,15,9.67,0,9.67,0,3.43,4.82,17.82,2.16,25.6-22.62,25.6-22.62,2.59-1.45,5.39-7.45,8.59-21.79,9.35-23.67,6.57-5.82,7-6.1,7.18-4.58,13-7.43,13.34-8.95,13.34-8.95l-2.26,24.4a10.32,10.32,0,0,1-.21,3.13c-.38,2.6-4.71,16.39-5.71,23.53s2.51,33.73,2.51,33.73,1.08,10.55.42,9a6.74,6.74,0,0,0-4.48-3.81c-2.35-.62-2.72.63-2.72.63s3.82,8.64,4,9.75,3.43,9.76,4.19,12.39,4.8,4.54,8.29,4.77,5.07,1.81,6.3,2.47a9.67,9.67,0,0,0,5.4.71c1.5-.38,4-.56,8.42-7.52s7-9.56,8.59-10.93,5.24-4.83,2.88-5-8.24,5.94-10.93,7.63-2.53-.07-1.93-1.46,9-18.11,10.65-22.15,0-5.39,0-5.39.29-.4.36-2.67-1.46-2.1-3.15.14-7.11,6.89-7.11,6.89,3.27-4.81,3.42-7-2-.89-3.08.62S349,368.84,349,368.84s-4,5.78.83-13.18S355.05,334.4,355,323s.69-11.88,2.56-21.55,13.05-35.74,11.82-48.1a40,40,0,0,0-7.8-20.21l-5.67-4.76-4.29-.81A4.75,4.75,0,0,1,351.76,224.85Z"/><path class="cls-3" d="M454.51,11.37c10.72,6,27.63,21.23,36.34,33.66s12.84,27.8,15.5,40.21,1.54,26.7-1.19,35.47c0,0-2.53,29.86-10.27,41.77s-12.54,15.46-16.46,21.57-9.47,19.18-22,29a96.41,96.41,0,0,1-36.37,17.6,117.81,117.81,0,0,1-16.92,2.87s-9.09,5.29-18,4.37-20-12.87-21.94-25.3,2.24-13.29,4.5-16.24S372,191,372,191s-.38-3.07-4.24-8-8.64-14.87-9.41-22.11a29.61,29.61,0,0,1,1-12.22s-2.4,1.78-4.12,6.72-2.21,9.28-1.13,13.92c0,0-1.18.79-3.63-2.36s-8.41-11.3-7.31-19.9c0,0,.89-5.93,4.64-9.57,0,0-.18-1.34-9,4.24,0,0-6.73,5-6.93,12.43,0,0,0,1.6-2.25-1.06s-3.38-4.85-2.92-9.64c0,0-8,4.52-10.2,13.14,0,0,0,4-1.26,3.89,0,0,2.2,4,1.18,10.77s-6.85,12.41-5.78,18.36,2.07,7.91,4.22,12.36,10.5,12.78,10.5,12.78a3.61,3.61,0,0,1-.69,2.61,6,6,0,0,0-1.15,1.9,6.81,6.81,0,0,1-4.2-1.37c-2.39-1.58-10.79-7.36-13-15.73-4.5-17.2,2.95-27,4.85-30.33s1.91-4,1.91-4c-1.07-3.49-5.87-13.49-4.76-17.87s.88-10.69,8-14.18a38.78,38.78,0,0,0,7.39-4.61c4.09-3.43,8.1-6.94,14.6-9.06a24,24,0,0,1,14.88.19,53.69,53.69,0,0,0-4.85-2.94,16.26,16.26,0,0,0-.41-12.59c-3.07-6.68-13.34-26.12-12.13-42.19,0,0,.16-8.31,1.54-12.45,3-9,8.38-20.95,16-27.44s14.76-10.11,13.65-8.62-3.33,5.13-3.33,5.13l-1.1,2.53c.93-2.14,3-4.17,4.68-5.72a25.1,25.1,0,0,1,9.52-5.41C384.07,10.28,392.21,10,399.28,8c0,0,11.92-3.3,14-3.74S433.27-.47,454.51,11.37ZM315.29,136.29m89.35,18.45c.34-2-2.38-2.73-4.13-3.12s-6.34-2.07-7.16-2.29-.38,2.18.11,3.57,1.14,1,1.83,1.13,4.6.48,5.79,1.25,1.43,3.64,1.43,3.64A11.68,11.68,0,0,0,404.64,154.74Zm-17.94,44c.53-1.49-.16-2.79-4.16-3.59s-6.76,1.72-8.9,4-2.38,4.36-2.76,7.44,1.57,2.27,1.57,2.27C381.51,209.93,386.16,200.28,386.7,198.78Z"/><path class="cls-4" d="M188.17,193.89c2.31,2,6.27,8.1,7.52,10s.49,2,.49,2-3-2.18-3.32-1.92.71,2.22,2.71,5.44a9.1,9.1,0,0,1,.93,7.09c-.12.31-2.15-.77-2.83-.76s.31,2.67.69,3.65a10,10,0,0,1,.64,2.48c0,.35-3.16-.32-8.05.71s-5.71,2.75-5.81,2.92.61.42.77.76-.95.43-.95.43l-13.21.59c-10.8.35-22.07-3.78-28.59-6.29s-27.73-16-35.31-20.72-19.55-8.61-27.22-10.81-18-9.2-18-9.2-7.73,4.11-11.25,5.07S37,188.11,33.83,184.2,28,170.66,23,161.78,8,144.49,6.13,138.33,3.62,129,2.62,126s3.42-1.63,6.91,1.3c0,0,9.26,9.51,19.39,13.73s18.92,6.84,18.92,6.84-18.33-8.62-20.73-10.83a44.36,44.36,0,0,0-6.25-13c-4.27-5.73-4.37-8.7-4.37-8.7s-.11-4.51,7.85,1a37.38,37.38,0,0,0,6.72,5.55c3.76,2.49,6.91,3.67,10.9,5.65s17.65,14.08,17.65,14.08,7.17,4.75,12,6.49c0,0,20.25,9.27,35.81,14.33s43.33,11.89,43.33,11.89c6.2,3.24,11.73,4.32,16.91,5.25a50.77,50.77,0,0,1,11.89,3.92c4.2,2.58,4.9,5.06,4.9,5.06s-11.44-1-14-1.54S155,184.89,155,184.89s12.15,4.87,21.06,6.43A117.3,117.3,0,0,1,188.17,193.89Z"/><path class="cls-4" d="M287.41,338.73s-1.26,8.79-7.69,13.5-7.29,5.56-9.54,6.53-4.25,1.3-3.93,1.7a33.4,33.4,0,0,0,4.49,2.13c.4.17-.89,1.08-2.25,1.46s-7.35,1.52-11.46.27.25,1.68.25,1.68,2.11.82,2.2,1.14-2.79.56-4.8-.15-3-1.13-3-1.13-9.47-3.69-12.05-7c0,0-.6-.67,1.16-1.37S252,351.49,260,343s9.76-25.6,10.14-32.13.39-7.73.39-7.73-.26-1.75,1.31-.85,6,6.18,7.89,9.93,5.78,15.27,7.21,20.95A15.1,15.1,0,0,1,287.41,338.73Z"/><path class="cls-4" d="M292.94,255.13s-8.66,2.37-14.3,1.51-7.27-3.17-7.45-3.53-4.14-6-4.19-9.83,1.09-8.77,1.8-9.8,2.39-1,4.33-.6,5.52-.77,8-1.7,3.08-2.42,4.18-.23,1.55,7.47,1.41,9.09-.75,3-.32,2.5,2.1-1.74,2.14-1,.17,5.19.11,6.79,2.28,4.82,4.3,6C293.45,254.57,292.94,255.13,292.94,255.13Z"/><path class="cls-4" d="M293.44,256.73s.41-3.27,1.21-3.92,7.79-5,22.82-5.38c0,0,1.08.35.15.93s-7.72,1.25-10.46,4a5.37,5.37,0,0,0,2.16,0,31.06,31.06,0,0,1,10.56.38,17.26,17.26,0,0,1,9.34,6.26c2,2.71-.7,1.83-1.59,1.74s-4.73-.55-3.3.69,5,3.1,7.62,6.74a18.69,18.69,0,0,1,3.11,7.75,5.06,5.06,0,0,1-2,.22c-1.53,0-6.33.76-6.16,1.37s3.48.78,2.42,1.29a11.78,11.78,0,0,1-5.69.69c-2.05-.31-6.31-.78-6.31-.78s-4.43,1.76-14.26-3.93S293.44,256.73,293.44,256.73Z"/><path class="cls-4" d="M336.48,120.14s1-1.93,1.29-2.42,1-1.44,3.41.41c0,0,1.17.5-.46,1S336.48,120.14,336.48,120.14Z"/><path class="cls-4" d="M396.57,165.71s-.86.24-1.11-1.45-1.2-7-1.64-8.62l-.45-1.63s.09-1.16,2.64-.51,7.11.73,6.48,3a13.89,13.89,0,0,1-2.86,5.73A15.2,15.2,0,0,1,396.57,165.71Z"/><path class="cls-5" d="M329.79,172.14s.84,5.14-.92,6.44-2.58-1.25-2.78-1.81a13,13,0,0,1,0-4.35c.3-1.3,1.2-2.89,1.38-2s.34,2,.87,2a1.12,1.12,0,0,0,1-.6C329.45,171.62,329.67,171.68,329.79,172.14Z"/><path class="cls-6" d="M268.41,304.69a2.57,2.57,0,0,1-1.66-1.64c-.63-1.46-4.46-9.69-8.31-16.73-4.24-7.77-12.86-20.82-14-22.77-3-5.11-9.51-16.36-11.82-21.06-2.43-4.94-9.86-18.34-14.87-26.67-5.18-8.6-7.79-12.4-10-15.09-3.53-4.21-6.29-4.75-9.74-6.14s-7.28-1.87-7.92-2.53.5-1.61,3.64-1c1.9.37,9.05,2.81,13.23,6.56,3.87,3.45,15.39,23.06,16.84,25.65s6.08,10.26,11.2,19.76c0,0,7.66,14.34,11.78,21.16,4.28,7.1,12.11,18.9,15.24,24.84S270.66,304.91,268.41,304.69Z"/><path class="cls-6" d="M183.86,187.48c.58-.25-1.19-2.11-1.19-2.11-2.12-2.36-7.36-5.69-7.36-5.69a22.19,22.19,0,0,1,4.07.2c2.82.35,6.43,4.57,7.22,5.49,2.05,2.41,2.51,4.07,3.2,4s-.81-2.71-1.64-3.89-4.49-5.47-7-6.59-7.9-.78-7.9-.78-2.62-1.43-9.78-2.48-30.47-6.85-38.9-8.84a219.69,219.69,0,0,1-24.83-8c-8.28-3-35-14.31-38.95-17.12s-12.87-10.66-19-15.14-9.39-7.32-12.21-11a24.79,24.79,0,0,0-8-6.56c-4.41-2.52-5.45-1.23-5.74.86a14.28,14.28,0,0,0,.81,7.79c1.33,3.8,4.57,8,5.76,10.15s4,8.24,4,8.24l2.11,1.42s-3.31-7.4-5-10.37-5.38-6.29-6.47-12.87a10.36,10.36,0,0,1,.2-3.75c.26-1.08.51-1.29,2.26-.62a22.17,22.17,0,0,1,7,4.67c2.48,2.68,4.47,5.33,8.29,8.34,5.93,4.68,14.12,10.5,15.83,12s8.87,7.55,11.93,9.5,31.16,13.74,34.14,15.07a189.88,189.88,0,0,0,27.72,9.23c11.29,2.57,29.86,7.13,31.75,7.54s7.81,1.54,9.71,1.67a29.64,29.64,0,0,1,7.34,2c1,.57,6.66,4.09,8.08,5.52,0,0,1.11,1,1.56,1.51C183.71,187.82,183.86,187.48,183.86,187.48Z"/><path class="cls-6" d="M193,296.61s-10.69-34.78-14.45-55c-.71-3.79-1.88-10.29-2.12-11.56s.77-1,.77-1,.25-.12.71,1.55,1.64,8.4,2.5,12.9c3.55,18.51,14,52.26,14,52.26C204.71,326.9,219,344.13,219,344.13c1.79,1.76,11.36,14,18,14.61,1.92.19,2,.68,2,1.2s-1.82,1.22-5.2-.31-7.65-5.13-10.12-7.83c-5.92-6.47-7.43-7.54-7.43-7.54l-8.67-3.75c-2.9-1.25-10.12-3.72-15.62-7.82-8.65-6.46-10.17-12.31-12.1-16.41-2.93-6.21-4.81-15.67-6.08-22.18s-4.2-18.3-6.53-32.8a178.4,178.4,0,0,1-2.57-27.65c.06-2.78-.06-4,.75-4s.74,1,.78,2.75c0,.94.2,9.31.54,12.8,1.18,12.13,2.64,19.8,4.11,27.79s4.67,22.57,6.31,29.5c2.58,10.93,6.85,18.88,9.54,22.34s6,6.85,13.3,10.48c3.65,1.81,14,5.8,14,5.8A180.35,180.35,0,0,1,193,296.61Z"/><path class="cls-6" d="M183.46,190.36s.64-.54,2.07.55a42,42,0,0,1,6.51,6.67,59.7,59.7,0,0,1,5.29,8.83c.27,1-.46,1.38-1.1.58a8.88,8.88,0,0,0-2.47-2.12c-.54-.2-.52.2.66,1.88a19.33,19.33,0,0,1,3.36,8.69c.12,2.32-.63,2.55-1.28,2s-2.55-1.39-2.67-.8.95,2.08,1.5,4.2c.37,1.43.58,2-1.23,1.87a22.6,22.6,0,0,0-10.57,2c-1.1.52-1.79,0-1.1-.77.87-1,5-2.4,9.28-2.56,2-.07,3.19.7,3-.3-.31-1.53-2.36-4.25-2.28-5.25s2.4-.66,3.07-.28,1-.35.72-1.94c-.17-1.08-1.89-6.95-5.12-9.51-2.23-1.77-3-1.82-2.56-2.72s4.73,1.81,6.05,3c1,.85.75-.07-.33-1.73s-4.32-7.42-8.72-9.88C182.58,191,183.46,190.36,183.46,190.36Z"/><path class="cls-6" d="M45.36,184.84c-4.18.94-7.36,1.67-10.53-.61-2.07-1.48-4.53-8.48-4.53-8.48s-4.88-11.85-8.58-17.3a162.21,162.21,0,0,0-11.06-14c-3.33-4-4.87-10.29-5.9-14.36a53,53,0,0,0-2.44-7.19c-.73-1.77-.75-3.27-.08-3.95s3.29.27,5.61,2,5.34,5,8.38,8.07c2.38,2.43,8.33,9.69,33.87,20.46s46,17.76,52.75,20.47,28.63,10.79,48.38,14.88,25,3.88,28.91,4.17,6,.59,5.78-.1-3-.91-10.3-2-20.74-4.07-30.37-6.36-31.9-9.65-41.56-12.93-38.5-13.51-46.48-16.51a214.65,214.65,0,0,1-24.8-11.87c-6.4-3.55-13.22-9.07-15.71-11.91-3.73-4.23-6.67-7-9.48-8.68s-6.39-3.06-7.1.22,1.75,5.38,4.37,16c2.18,8.78,6,11.45,13.69,20.68,5.63,6.74,11.16,20.89,13,25.92s4.6,5.8,4.6,5.8c6.54,3.14,15.35-1,18.42-2.41,0,0,3-1.51,2.59-2.76s-1.64-1.25-4.08-.09A35.31,35.31,0,0,1,45.36,184.84Z"/><path class="cls-6" d="M60.28,180.59c3.24,2.24,12.16,6.22,12.16,6.22,6.16,3,16.1,4.83,20.23,6.75,9.71,4.49,25,13.63,36.54,20.88,10.85,6.78,19.37,8.84,19.37,8.84s4.87,2.11,15.28,2.73a159.24,159.24,0,0,0,17-.1c.89,0,1.49,0,1.56.94.1,1.26-9.31,1.36-11,1.49s-12.46-.05-17.14-1.06c-6.3-1.36-13.79-4.31-21.78-8.67s-30.85-20.28-44.25-24.26c-14.87-4.41-22.38-8.29-28.21-12.09,0,0-3.57-2.59-3.12-3.15C57,179.11,57.14,178.42,60.28,180.59Z"/><path class="cls-6" d="M174.08,305.59s.88.34.17,1.12-4-.39-5.3-.6a34.53,34.53,0,0,1-6.37-1.47,13,13,0,0,1-5.61-3.78c-1.6-1.83-4.14-3.58-6.11-6.79s-3.69-5.52-3.26-6.6,1.36-1.22,3.25-.05,7,5.59,8.3,5.59-.09-3-1-4.08a49,49,0,0,1-4.76-7.64c-1.19-2.58-4.4-6.44-5-10.37-.69-4.42,1.23-4.31,1.23-4.31s1-.18,1.76,1.57c0,0-.39-2.32.93-2.8s2.25.23,3.18,2.27,5.86,10,6.16,10.65a15,15,0,0,0,3.54,4.11c1.21,1,4.95,3.89,5.45,4.43s2.32,1.68,2.69,2.33.35,1.27.09,1.15a43.17,43.17,0,0,1-3.77-3.21c-1.14-1.08-6.32-5-7.47-6.52s-4.46-7.59-5.33-9.08-2.61-4.29-2.89-4.63-.56-.8-1.35-.45-.5,2.09-.14,3.4a16.9,16.9,0,0,0,1.8,3.64c.78,1.35,3.6,5.09,4.39,6.19.3.41,3.2,3.94,3.63,4.34s.48,1.15,0,1.06-2.61-2.64-4.07-4.4-3.72-5.14-4.45-6.26-2.2-3.46-2.58-4.34-.84-2.24-1.76-1.88c-.5.2-.63,1.85-.18,3.75s2.57,5,3.18,6,1.74,3.41,2.09,4.15a69.8,69.8,0,0,0,4.29,6.64,11.91,11.91,0,0,1,2.14,4.39,1.08,1.08,0,0,1-1.23,1.21,15,15,0,0,1-4.3-2.29c-1.62-1.09-3.63-2.67-4.16-3.08s-1.64-1.37-2.43-.95-.48,1,1.09,3.48a25.35,25.35,0,0,0,4.58,5.9c2,1.82,3.17,3.51,5.13,4.79s4.6,1.74,7.08,2.11S172,304.68,174.08,305.59Z"/><path class="cls-6" d="M283,228.81a17.13,17.13,0,0,1,2.87,8.35c.27,3-.65,6.54-.68,7.46s1.52-.84,2-1.73.61-1.35.9-.31-.42,3.82,0,6.36a9.22,9.22,0,0,0,2.24,4.84c.55.48.39-.11-.39-1.92a13.35,13.35,0,0,1-.43-6.17,13.12,13.12,0,0,0-.26-4.76c-.35-1.3-.91-.52-1.23-.15s-.57,0-.57,0,.6-1.75.05-5.79a16.75,16.75,0,0,0-2.25-6.66c-.3-.61,1.32-1.08,3.37-1.38.94-.14,2.24-.11,3.23-.24s1.43-1.25,1.55-1.82c.27-1.37,2-2.61.63-3-.7-.18-1.46,1.61-1.47,2.62s-.56,1.48-3,1.43a26.54,26.54,0,0,0-8.3,1.84s-.89.49-.67.78C280.94,229.18,282.41,228,283,228.81Z"/><path class="cls-6" d="M279.93,228.9c0-.45-.54-.58-.54-.58a13.75,13.75,0,0,0-7.62.82c-.92.25-3.89,3.74-4.93,7.11s-1.24,5.16-.51,9.4c1,5.66,6.14,10.78,6.14,10.78a58.42,58.42,0,0,0-3.31,9.13c-.91,3.93-2,6.4-5,7.88s-8.36,5.69-8.3,6.25.47,1.63.8,1.19,1.08-1.75,5.31-4.76c1.29-.92,5.18-3.11,5.57-3.54a9.49,9.49,0,0,0,2.51-4.53c.54-1.88,1.5-6.27,2-7.54a18.61,18.61,0,0,1,2.19-4.1s.38-.48-.76-1.75a23.85,23.85,0,0,1-4.84-8.66,18.87,18.87,0,0,1,.43-11.78c.74-2,2.24-4.08,3-4.28a28.87,28.87,0,0,1,6.39-.46C280.29,229.67,279.93,228.9,279.93,228.9Z"/><path class="cls-6" d="M246.89,261s9.36-6.13,11.72-7.91c2.57-1.93,6.46-4.77,7.44-5.51s1.58-.87,1.5-1.68a3.72,3.72,0,0,0-.39-1.34s-8.33,6.82-11.51,9c-7.55,5.12-9.38,6.34-9.38,6.34s-.55.38-.31.84A.63.63,0,0,0,246.89,261Z"/><path class="cls-6" d="M268.15,281.85s.45.25-.14,1.45a9.35,9.35,0,0,1-3.72,3.32c-.9.28.85-.92,1.48-1.82a11.23,11.23,0,0,0,1.4-2.5C267.42,281.61,268,281.45,268.15,281.85Z"/><path class="cls-6" d="M276.55,229.09s3.22,2.64,4.11,4.21a27.8,27.8,0,0,1,2.26,4.94A55,55,0,0,1,285,247c.34,3.32.77,6.15,0,4.65s-2.91-7.72-4.82-10.15a43.79,43.79,0,0,1-3.77-5.44c-.66-1.18-2.82-4.11-2.93-5.33s.39-1.47.92-1.61A10.29,10.29,0,0,1,276.55,229.09Z"/><path class="cls-6" d="M268.06,234.14s3.44.53,7,4.44a64.3,64.3,0,0,1,8,12.12c.37.92.27,1.4-1.62-.12s-4.55-3.75-5.63-4.36a16.78,16.78,0,0,1-3.53-3.35,15.19,15.19,0,0,0-2.81-2.41,5,5,0,0,1-2-2.75A18.9,18.9,0,0,1,268.06,234.14Z"/><path class="cls-6" d="M292.46,254.82c-.75.14-3.86.83-3.86.83-7.07,1.14-8.76.36-10.41.13s-2.72-1.64-3.32-.91.86,1.47.86,1.47a23.19,23.19,0,0,0,9.72,1.08c2.28-.39,6.82-1.64,6.82-1.64S295,254.37,292.46,254.82Z"/><path class="cls-6" d="M270.45,247.45s.5-.25,2.82,1.16,7.55,4.75,8.68,5.57,3.61,2.42,3.61,2.42a11.74,11.74,0,0,1-8.33-1.81C273.43,252.09,269.24,248.81,270.45,247.45Z"/><path class="cls-6" d="M321.43,218.86s.29.59-.61,1.08a22,22,0,0,1-8,1.3,18,18,0,0,1-6.83-2.12,7.75,7.75,0,0,0-6.7-1.17,25.45,25.45,0,0,0-7.24,3.28c-2.66,1.87-2.86,5-5.13,5.64s.21-.71,1.27-2.22,2-3.79,4.53-5.15,7.4-3.38,9.85-2.93c3,.56,4.88,2.81,9.76,3.5a14.45,14.45,0,0,0,6.14-.46,20.87,20.87,0,0,0,2.23-.92S321.29,218.4,321.43,218.86Z"/><path class="cls-6" d="M327.81,212.71s-3,5.45-3.46,6.21-2.26,3.71-3.59,4.53A12.29,12.29,0,0,1,317,224.9c-1.22.23-2.65,0-1.51-.55s4-.13,6.52-3.41a39.85,39.85,0,0,0,4.61-8.13c.19-.48.53-1.21.53-1.21l1.49.34Z"/><path class="cls-6" d="M310.67,274.55c-1.16-.86-6.87-5.7-8-6.66s-4.7-3-5.16-4.39,2.08-.07,4,.93,8.8,4.16,11.18,5.78a28.64,28.64,0,0,1,5.29,5.2c.63.75.67,1.5,4.42,2.91a14.87,14.87,0,0,0,5.74.37c.81-.14,2-.46,1.72.11s-3,1.17-3.91,1.41a7.93,7.93,0,0,1-4.77-.21,26.76,26.76,0,0,0-2.71-.68c-.26,0-2.38,0-2.38,0-7.76.3-16.75-3.33-20.71-10.49A22.78,22.78,0,0,1,293.71,251c2-5.64,5-8.93,9.21-10.93a15.83,15.83,0,0,1,6.82-1.77s1.16,0,1.18.33-.95.34-.95.34a19,19,0,0,0-7,2.14c-2.95,1.78-6.41,4.19-8,11.44A21.13,21.13,0,0,0,300,270.4a26.69,26.69,0,0,0,16.63,7.79S312.57,276,310.67,274.55Z"/><path class="cls-6" d="M167.75,180.06s.78-1,2.13.38,2.81,4.65,2.07,4.29-1.75-1.95-2.61-2.44S167.66,180.89,167.75,180.06Z"/><path class="cls-6" d="M158.49,179.28a1.07,1.07,0,0,1,1.45-.88c1.24.39,3.47,3.49,3.69,4s1.66,2.54.6,2.5-3.06-2.31-4.23-3S158.19,180.57,158.49,179.28Z"/><path class="cls-6" d="M175.6,192s.63-.84,1.81.65,7.05,8.67,10.1,12.13,6.86,8,7,8.49.79,2.17-.16,2.53-.73-.57-1,.35-.18,3.87-2.29,1.4S178.94,202,177.61,199,174.41,193.53,175.6,192Z"/><path class="cls-6" d="M270.9,303.16a21.12,21.12,0,0,1,.47,4.2c.12,2.92-.54,17.54-1.79,22.09s-2.29,9.5-6.92,12.92-6.63,3.19-5.31,1.8,5.86-6.87,7.69-11.77c2.4-6.43,3.89-15.28,4.79-24.85,0,0,.09-2.8.1-3.27s0-1.53.32-1.72C270.72,302.27,270.9,303.16,270.9,303.16Z"/><path class="cls-6" d="M160.42,190.09s1-1.35,2.71,1,9.91,14,11.15,15.57,2.8,5.3,4,6.6a20.61,20.61,0,0,1,3.57,5.64c.64,1.85-.44,1.87-1.92.39a19,19,0,0,0-4.85-3.4c-1.56-.79-2.74-4.11-4.67-7.22s-7.45-10.92-9.17-14.23S159.82,191.34,160.42,190.09Z"/><path class="cls-6" d="M168.67,227.11a79.92,79.92,0,0,1-10.38-12.28c-4.38-6.62-7.8-11.22-10.95-19.26s-4.59-10.35-3.18-11.14,8.57,12.09,11,15.89,10.82,16.33,11.51,17.36,7.25,9.21,7.25,9.21Z"/><path class="cls-6" d="M152.71,225a78.7,78.7,0,0,1-11.57-13.16c-5.74-8.14-11.3-22.54-12.33-25.77s-1.08-5.92.15-4.9,15,25.18,17.25,28.47,8.29,10.55,9.1,11.55,2.19,4.53-1.14,4.22S152.71,225,152.71,225Z"/><path class="cls-6" d="M109.5,178.13s-1-2.28-.64-3.33.88-2.67,2.91.28,11.1,16.39,12.86,18.88A78.08,78.08,0,0,1,131,205.44c.71,2.1-.42.92-2.65-1.3s-6.86-5.81-9.24-9.08S111.24,181,109.5,178.13Z"/><path class="cls-6" d="M116.12,207.23s-7.27-7.33-11.2-13.81S96.36,175,95.56,172.1s-.62-3.75.22-3.16,5.65,9.78,9.45,15.76,12,16.82,13.22,19.19,1.88,4.88.91,5.28S116.12,207.23,116.12,207.23Z"/><path class="cls-6" d="M96.87,196.31s-6.56-7.13-8.8-11.12-6-12.32-7.53-15.88-3.56-8.14-2.21-9,3.18,2.58,3.83,4,10.19,18.17,13.11,22.68,5.41,6.83,5,8.7-.7,2-.7,2Z"/><path class="cls-6" d="M60.78,155.62s1.61-1.24,4.06,1.27,11,15,12.93,18.13,5.22,8.74,4.77,9-1.58-1.25-4.13-3.47-8.51-7.84-11-12S58.31,156.3,60.78,155.62Z"/><path class="cls-6" d="M42,147.77s.63-.62,2.75,1.63,11.59,12.92,13.41,15.69,9.56,13.92,11.72,16,2.13,3-.32,1.77a33.64,33.64,0,0,1-9.42-7.59c-2.42-3.05-7.29-10.82-11.36-16.61S40.92,148.33,42,147.77Z"/><path class="cls-6" d="M27.16,141a123.88,123.88,0,0,1,8.52,9.17c2.86,3.63,10,14,11,15.37s6.07,9.57,7,10.45,2.07,2.09,1,1.87-10.78-7.4-16.31-15-13.16-21.24-13.89-22.28S22.46,137.12,27.16,141Z"/><path class="cls-6" d="M40.84,186.11a10.58,10.58,0,0,1-5.61-3.68c-2.32-3-2.86-7.53-3-8s0-1,1.1.49,5.75,6.12,6.33,7.28S41.91,186.17,40.84,186.11Z"/><path class="cls-6" d="M48.52,180.91s1.58,2.22.1,3.6-5.57-2.28-7.34-4.53S31,167.15,26.68,160.28s-5.91-10.94-10.89-17.8a61.26,61.26,0,0,1-7.36-12.66c-.69-1.58-1.15-3.23.47-2.17s4.58,7.68,8.63,12.14a99.32,99.32,0,0,1,11.2,16c2.44,4.38,8.87,11.37,12.18,16S47.92,180,48.52,180.91Z"/><path class="cls-6" d="M34.23,140.23s-1.65-2.68-3.77-6a54.15,54.15,0,0,1-5.62-10.57c-2.54-6-2.44-7.8-1.92-8.45s1.55.48,2.64,2.61a69.05,69.05,0,0,0,6.16,10.72c3.44,4.8,4.59,6.81,5.23,9.15s1.86,4.94.62,4.47A22.15,22.15,0,0,1,34.23,140.23Z"/><path class="cls-6" d="M50.2,148.46s-2.26-4.22-4.26-6S42.41,137,41.78,135s-3.88-6.8-4.27-8.21.19-2.27.76-2a31.27,31.27,0,0,1,2.9,2.13,55.36,55.36,0,0,0,3.24,5.57c2.7,4.31,6.49,10.43,7,12.61a7.87,7.87,0,0,1-.12,4Z"/><path class="cls-6" d="M61,153.08A15.41,15.41,0,0,1,57.2,149c-.94-2-4.54-6.62-5.48-9.69s1-2.29,1.4-1.5,4.58,6,5.65,7.73,3,4.63,2.83,5.89A2.81,2.81,0,0,1,61,153.08Z"/><path class="cls-6" d="M75.06,158.19s-4.24-3.68-5.83-6.57-1.15-4.53-.35-5,4,1.63,4,1.63A33,33,0,0,0,75,153.16c1.15,2,3.38,4.63,2.65,5.63Z"/><path class="cls-6" d="M85.5,161.69a23.69,23.69,0,0,1-2.68-3.91c-1.38-2.45-2.55-4.14-1.55-4.92s3.38.58,3.38.58a32.6,32.6,0,0,0,1.5,3.63c.57,1,2.26,2.71,2.14,3.75a2.72,2.72,0,0,1-.77,1.62Z"/><path class="cls-6" d="M95.34,165.55s-2.51-4.36-2.24-6,1.09-1.91,1.09-1.91l1.77.93s.69,2.53,1.69,5.08l1,2.55Z"/><path class="cls-6" d="M105.42,168.84s-2.48-3.16-2.13-4.46a3.22,3.22,0,0,1,1.3-1.87l1.43.41s.89,2.18,1.59,3.6,1.31,2.57,1.2,3.3S105.42,168.84,105.42,168.84Z"/><path class="cls-6" d="M115.1,172.14S112,167,114,165.67l1.61.36a51,51,0,0,0,3.55,7.41Z"/><path class="cls-6" d="M128,176.38a22.34,22.34,0,0,1-3.15-3.78c-.52-1.17-.29-2.54.62-2.89s2.24,1.2,2.88,2.44,2.89,3.54,3.07,4.91Z"/><path class="cls-6" d="M142.51,180.16s-4.8-2.82-6-4.7-.25-3.87.69-4.13a2.17,2.17,0,0,1,1.54.09,14.23,14.23,0,0,1,2.64,4.12C142,177.48,146.09,181.8,142.51,180.16Z"/><path class="cls-6" d="M152,182.71s-6.42-5.41-6.73-6.53-.17-2.07.86-2.36,2.07.55,2.81,1.76l4.26,7.1Z"/><path class="cls-6" d="M328.94,370c-.27-7.36-3.1-25-2.67-32.18s3.56-16.5,4.74-21a69,69,0,0,0,2.05-12.48c.16-3,1.1-17.13,1.1-17.13a10.3,10.3,0,0,0-1.08.84c-.53.47-6.37,4.69-7.51,5.33s-15.37,8.92-16.74,9.51a17.92,17.92,0,0,0-5.45,4.45c-1.19,1.63-3.37,8-5.48,14.29s-5.79,13.17-7.3,14.46-1.5.52-1.51.08a40.61,40.61,0,0,1,2.48-4.5c3-4.55,5.28-14.67,7.25-19s2.49-6.47,5.26-8.33,12-7.33,19.05-11.45a77.62,77.62,0,0,0,11.63-8.21s1.83-12.09,1.9-13.42,1-9.36.36-11.47-1.64-2.39-.75-2.75,2.79,1.43,3.44,4.2-.86,10.84-.95,11.3c0,0-2.36,13.33-2.73,18.35s-1.25,19.36-2.84,25.15-4.31,15.39-4.91,22.77,1.44,22.78,1.85,27.48.73,7.45.73,7.45.3,2-.55,2C329.3,375.83,328.94,370,328.94,370Z"/><path class="cls-6" d="M353.11,228.8a45.45,45.45,0,0,0-7.06-.23c-1.69.3-3,.1-2.72-.54s3.68-1.25,5.89-1.38a22.11,22.11,0,0,1,9.59,2.44c3.44,1.71,6.39,4.84,8.27,9.63s4.12,11.81,3.64,17.41A114.4,114.4,0,0,1,366.88,275c-1.65,6-5.44,16.52-6.66,20.87s-4,16.14-4.27,22,1.37,12.33-1.28,21.41-5.29,25-5.91,26.54-.22,3.6-1.51,4.19.83-7.54,1.83-13.28,5.09-20.44,5-24.28-.32-13.49.26-20.17,5-21.45,6.93-27.21,6.29-21.66,6.6-26.09a40.52,40.52,0,0,0-1.35-14c-1.34-4.61-4.79-11.54-8.26-13.73C355.05,229.15,353.55,228.76,353.11,228.8Z"/><path class="cls-6" d="M272,336.43s.41.46,0,2a24.5,24.5,0,0,1-3.34,6.06c-1.19,1.49-2.86,2-3.42,3.91s-4.59,5.46-6.64,7.25-10.64,5.31-12.27,5.18a3.45,3.45,0,0,1-2.65-1.74c-.35-.49,1.08-1.6,4.59-3.07s9.88-6.26,10.93-7.2,4.43-3.89,6.29-5.56a25.75,25.75,0,0,0,4.22-5.5C270.2,336.77,271.67,335.28,272,336.43Z"/><path class="cls-6" d="M271.75,302.51a46.39,46.39,0,0,1,5.22,6.11c2.5,3.66,3.41,5.71,5.49,11.32.58,1.55,1.92,5.92,2.21,7s1.63,5.93,1.89,6.87a9.53,9.53,0,0,1,.28,5.28,24.74,24.74,0,0,1-4,8.55c-3.25,4.6-7.81,8.77-15.8,11.58,0,0-1.29.36-1.34,1.09s3.09,2.11,3.64,2.25-.05.67-.79.88a21.9,21.9,0,0,1-8.67.85c-3.27-.31-3.87-1.1-4.58-.25-.52.63.55,1.43,1.26,1.89s2.22,1,1.92,1.21-4.57-.56-6-1.26-1.58-.22-1.35.08,2.73,1.79,8,2c0,0,1.62-.15,1.56-.65s-4.18-1.75-4.48-2.61,4.6,1.71,12.25.05c0,0,5-1.3,4.9-2.5s-1.21-.18-4-.94-3.06-1-2-1.2a31.21,31.21,0,0,0,14.73-9.18c4.77-5.58,6-10,5.68-14.16A51.52,51.52,0,0,0,285.59,326c-.78-2.32-2.59-7.59-4-11a41.08,41.08,0,0,0-7-10.74c-2.43-2.45-3.22-2.81-3.37-2.4C271.13,302,271.75,302.51,271.75,302.51Z"/><path class="cls-6" d="M275.56,324.93a19.74,19.74,0,0,1,2.14,9.22,34.11,34.11,0,0,1-5.7,18.79c-4.53,7.18-8.49,9-9.61,9.4s-4.6,1.64-5.34,1.75-3.37.87-3.74.93c-1.64.26-2.35-.6-1.94-1.18s1.42-1.06,3.08-1.61,9.09-4,13-9.76a39.72,39.72,0,0,0,6.63-18.2c.75-6.3-.07-8.93-.07-8.93s-.26-.72.27-1S275.56,324.93,275.56,324.93Z"/><path class="cls-6" d="M273.29,356.94s2.34-4.3,3.38-5.65,1.45-6.52,1.59-9.09,1.9-9.62.47-17.8c-1.55-8.86-3.71-11.58-4.46-12.43-1.07-1.21-1.12-1.52-.79-1.61s3.28,2.48,5.22,5.46,3.25,5.45,4.57,11.78.8,12.94,0,15-1.53,7.53-2.53,9S273.29,356.94,273.29,356.94Z"/><path class="cls-6" d="M358.66,401.18a12.43,12.43,0,0,1-8.38,6c-1.93.16-6.22-2.38-7.8-3.18s-7.58-1-9.74-3-4.67-8-5.08-9.5-1.82-7.54-2.68-9.78-2.82-5.79-2.29-6.55,1.89-2.13,5.21.05,5,8.4,5.78,9.81,4.12,1.47,6.12,4.26a12.12,12.12,0,0,1,2.13,6s-.21,1.92-.86,1.36-.14-2.32-1.56-4.78a12.08,12.08,0,0,0-4.67-4.41c-1.18-.67-2.55-1.16-3-2.65a32.92,32.92,0,0,0-4.47-8.18c-1.39-1.48-3.1-1.38-3.63-.62s2.17,3.86,3.11,6.82,2.59,9.94,4.3,12.56,3,5.49,6.51,6.14,7.2,1.86,8.43,2.76,2.95,2.17,6.7.52,6-5.73,6.46-6.72a43,43,0,0,1,2.79-4.59c.37-.49.84-1.09,1.35-1.69a23.13,23.13,0,0,1,3.25-3.4c1.18-.83,4.92-4.41,4.76-5s-1.1-.72-3,.58-3.65,3.42-5.18,4.35-2.79,2.42-4,2.75.18-1.2,1.44-2.18,1.91-1.42,4-3.26a25.52,25.52,0,0,1,5.67-4c1.16-.44,2-.16,2.28.4s0,2-2.18,4.17-5.58,5.23-6.3,6.32A76,76,0,0,0,358.66,401.18Z"/><path class="cls-6" d="M340.44,379.22s-1,1.16-1.27.48,2.53-4.27,3-5,6-5.71,7.11-6.66,7.22-6.71,8.35-8.16,3.28-4.35,4.27-4,1.51,2.26.92,3.83-1.5,3.35-1.5,3.35,4.41-4.4,5.09-5.61,1.67-2.75,2.91-2.45,1.72,3.48.25,6.05c0,0,1.45.63.93,2.94s-2.85,7.29-4.2,9.82-5.07,9.43-5.75,11.15-2,4.88-2.84,5,.25-2.36.87-3.81,3.33-7.42,4.53-9.54,4.85-8.85,5-9.66,1.62-3.89.49-4.73c0,0-2.58,4.53-3.42,5.66s-3.76,4.47-5.47,6.6a58.44,58.44,0,0,0-4.93,7.6c-.83,1.63-1.62,3.89-2.46,3.61s.14-1.82.62-2.85,2.45-5.52,5-8,6.24-8,7.89-10.33,3-5.41,2.87-6.28-.73-.82-2.22.74-6,6.88-7.2,7.72a76.17,76.17,0,0,0-6.78,6.45c-1.17,1.34-3.89,6.3-4.53,7.24s-.58,2.07-1.71,2.13.26-2.76.58-3.48a35.7,35.7,0,0,1,6-7.9,59.93,59.93,0,0,0,4.82-4.76s3.8-4.75,4-7.62c0,0,0-1.91-1.82.37a61,61,0,0,1-7.82,7.76c-2.41,1.93-8.73,7.75-9.42,9S340.44,379.22,340.44,379.22Z"/><path class="cls-6" d="M327,279.26s-2.34-2.05-4.49-4.07-10.57-9.4-15.12-11.85a85,85,0,0,0-11.61-4.9s-2-1.14-.8-1.39,3.45.32,6,.3,5.9,1.25,10.18,3,11.17,6.36,12.9,8.67,3.41,7.23,3.58,7.86S328.79,279.85,327,279.26Z"/><path class="cls-6" d="M308.23,253.66a61.21,61.21,0,0,1,5.68,2.32c3.32,1.36,3.1,2.69,7,5.57s6.4,4,7.14,5.46,1.35,1.23,1.33.56,1.33,2.08,2.31,3.83a44,44,0,0,0,3.38,4.63l-.51-4.32s-3-7.09-6.05-8.54-3.53-2.14-3.13-2.51a1,1,0,0,1,.77-.29s-3.31-4.06-6.41-5.23-7.23-3.07-8.08-3.09-4,.66-3.82.2a2.84,2.84,0,0,1,.51-.89l.54-.49s-3.43-2.09-5.25-1.67-6.52,2-6.52,2a15.18,15.18,0,0,1,4.2.87,11.87,11.87,0,0,0,4.62.59Z"/><path class="cls-6" d="M332.1,275.66a8.5,8.5,0,0,0-3,.56c-.45.21-1.24,1,.33.58a15.32,15.32,0,0,1,6.15.34c.86.35.48-.72.48-.72a6.73,6.73,0,0,1-.89-3,15,15,0,0,0-.41-3.34c-1.56-5.38-9.22-8.75-8.62-9s3.94.86,3.94.86a1,1,0,0,0,1.22-1.09A15.85,15.85,0,0,0,320,252.2c-8.35-1.59-11.37-.34-11.37-.34.4-.7,3.51-1.63,6.27-2.31s4.62-1.26,4.57-1.75.55-1.67-9.81-.18-15.56,4.69-15.56,4.69l.12,1.65s3.64-3.61,13.55-5.23,9.91-1,9.34-.63-5.25,1.11-7.78,2.31-5.11,3.17-4.75,3.57,1-.69,5.19-1.34,9.93.31,15,3a16.37,16.37,0,0,1,3.68,3.62s.62,1-.45.8-3.69-.25-3.69.68,3.79,2.16,6.2,5.12a14.38,14.38,0,0,1,3.21,6.19c.37,1.33.82,3,.82,3S335.18,275.83,332.1,275.66Z"/><path class="cls-6" d="M447.25,192.07c-8.74-2.38-14-1.43-20.54,1.09S413.62,204,411.3,208.91s-8,12.09-8,12.09c-4.32,4-10.57,4.6-12.16,5s-2.78.46-2.1,1.47a7.3,7.3,0,0,0,5.12,2.21c1.66-.15-1.36,1.27-2.92,1.8s-16.62,2.25-21.51-8.64-3.29-16-1.3-21.19,6-7.67,6.17-10.41-3.81-.36-6.2,1.5-9.4,9.59-12,15.82a39.37,39.37,0,0,0-2.9,11.72,15.43,15.43,0,0,0-1.23,1.74c-.47.83-1.11,1.8-.85,2.74s.8.38,1-.17a4.78,4.78,0,0,1,1.24-2.18,11.14,11.14,0,0,0,2.67,6.22s6,4.18,7.63,6.23,5.15,5.84,12.65,7.33,17.85,1.24,28.17-8.31c0,0,7.62-8.26,11.44-15.8s15.5-19.45,20.33-21.51,5.85-2.45,8.75-2.51c1,0,4.07.1,4.08-.76S447.25,192.07,447.25,192.07Z"/><path class="cls-6" d="M326.41,204.12a.52.52,0,0,1,.82,0,2.94,2.94,0,0,0,1.16.5.41.41,0,0,1,.26.62,1.58,1.58,0,0,1-1.34.33,1.26,1.26,0,0,1-.85-.68C326.3,204.52,326.28,204.35,326.41,204.12Z"/><path class="cls-6" d="M318.11,137.94c-5.57,5.66-6.54,16.76-6.42,18.09s.37,3.61,1.72,4.48,2,.82,2.15,5.59a18.43,18.43,0,0,1-1.71,8.64c-.55,1.63-5.32,10.86-5.08,17.59a30.6,30.6,0,0,0,6,16.8c2.8,3.44,10.41,7.39,10.41,7.39l1.94-3.72s1.45.61,7.12.76,12.88-.51,13.1-.9-.21-.76-.21-.76-7.37.15-11.46,0a35.93,35.93,0,0,1-8.89-1.23c-1-.38-4.35-2.22-5.18-3.46s-7.7-10.84-8.58-12.88a11.62,11.62,0,0,1-.83-7.5c.74-2.65,4.69-9.6,4.82-12.4s.36-8.49-.27-11.4a11.3,11.3,0,0,0-1.62-4.14c-1.16-1.54-1.05-7,.31-10.61s3.91-9,5.46-9.07c.75,0-2.32,3.55-1.14,4.71s3.05-8,12.84-12.95,13.95-2.34,13.95-2.34,3.7,1.75,4.63-.22-6.25-4.92-9.55-4.48c-3.49.46-8.62,1-14.12,6.32S320.42,135.6,318.11,137.94Z"/><path class="cls-6" d="M306.77,179.52c1.3-3.45,5.44-10.12,5.44-10.12s.16-.34.42-.28c.69.13-.44,1.31-1.06,2.7s-3.76,6.92-4.46,9.33a35.31,35.31,0,0,0-.43,18.23,28.61,28.61,0,0,0,8.38,14.43,22.4,22.4,0,0,0,4.59,3.58c.73.46,1.76.83,1.78,1.47s-.61.37-.61.37a28.57,28.57,0,0,1-5.39-3.29,37.25,37.25,0,0,1-8-9.44A34.87,34.87,0,0,1,306.77,179.52Z"/><path class="cls-6" d="M331.21,181s.45.16.43.5-.37.49-1.17.46-1.87-.21-1.92.27,0,2.09,0,2.65a9.62,9.62,0,0,1-.51,2.78c-.3.34-.77.22-.69-.93a15.93,15.93,0,0,0,0-4.49c-.32-1.72,1.09-2,1.81-1.72A19.64,19.64,0,0,0,331.21,181Z"/><path class="cls-6" d="M335.45,196.87a.58.58,0,0,1,.37.85c-.2.42-.49.68-1.79.22s-3.43-1.05-3.43-1.05-2,1-2.18,1.19-.66.58-.64.81.21,2.08.9,2.62,2.45,0,3.58-.46,3.2-1.33,3.36-1.42.49-.18.59,0-.08.52-.91,1a31.67,31.67,0,0,1-3.8,1.63c-.67.18-2.48.85-3.2.51-.87-.41-1.11-1.92-1.28-2.95s-.77-4.08-.84-4.38a.73.73,0,0,1,.47-.87,2.65,2.65,0,0,1,1.79.39,48,48,0,0,0,5.63,1.67Zm-8.06-1.22c-.38,0-.07.88.12,1.49s.5.24.5.24l1.86-.95S327.65,195.66,327.39,195.65Z"/><path class="cls-6" d="M349.08,135.82a18.53,18.53,0,0,0-7.14,13.65c-.32,8.32,6.74,17,9.68,19.07,0,0,1.35,1-.5-1.75s-5.36-7.31-6.44-12.36c-1.3-6.16-.93-11.71,3.81-16.77a35.72,35.72,0,0,1,4.15-3.6s1-.73.69-.7C352.68,133.43,351.57,133.84,349.08,135.82Z"/><path class="cls-6" d="M360.6,176.7s-3.07-3-6.45-2.57a7.31,7.31,0,0,0-4.71,2.15c-.51.55-1,.23-.44-.48a8.46,8.46,0,0,1,7.44-2.7,7.62,7.62,0,0,1,5,3.68s.41.58.17.75S360.6,176.7,360.6,176.7Z"/><path class="cls-6" d="M360.06,145.68a36.79,36.79,0,0,0-1.87,19.62c1.71,10,9.23,18.64,9.23,18.64s3.84,3.77,4.37,7.44.7.28.7.28.53-2.33-2.88-7.39-7.83-11.55-10.09-20.35,1.26-18.4,1.83-19.18c0,0,.55-1.13.81-1.52s-.12-.57-.31-.4A11.76,11.76,0,0,0,360.06,145.68Z"/><path class="cls-6" d="M359.82,148s-6.84,9.31-5.19,20c0,0,.26,1.69-.1,2s-1-.68-1.47-2.45a22.41,22.41,0,0,1,6.64-20Z"/><path class="cls-6" d="M359.36,168.4s-4.14-3-7.84-.38a3.88,3.88,0,0,0-.75.83c-.38.55-.38-.38.3-1.32.81-1.11,3.72-3.72,8-1.16Z"/><path class="cls-6" d="M370.49,137.28a1.43,1.43,0,0,1,1.77-.89c1.41.28,8.82,4.4,14,17.42a37.78,37.78,0,0,1,1.69,23.72s.2,1.69,1.15-.18,1.7-6.48,1.66-8.6.71-.33.83,1.1.47,12.44-7.73,24.44l-4.64,1.14s9.21-14.69-.24-38.43c0,0-1.74-2.46-1.14.72s2.73,9.94.44,16.72c0,0-.91,2.52-1.84.1s-.3-5-5.41-12.42S367.41,144.54,370.49,137.28Z"/><path class="cls-6" d="M326.43,179.37s.39.33.09.56-4.18-.6-4.58-2.61c0,0-.13-1,.31-1.25s.06.49.42,1A6.09,6.09,0,0,0,326.43,179.37Z"/><path class="cls-6" d="M348.2,137.26s-13.29,4.15-15.65,14.71c0,0-.14,1.06-.67,1s-.12-5.22,5-10.26,12.59-6.44,12.59-6.44Z"/><path class="cls-6" d="M330.77,155.22c-.45-.2-8.58-5.78-3.13-15.6A18.42,18.42,0,0,1,341.09,130s.32,0,.37.25-.11.41-.11.41c-.3.37-3.1.76-6.13,3-2.43,1.77-11.16,8.4-5.2,18.72,0,0,.42.77.78,1.31s.61.8.63,1.24S331.11,155.36,330.77,155.22Z"/><path class="cls-6" d="M317,156a23.43,23.43,0,0,1,9.29-11.57l.36-1.81c-9.46,6.24-10.63,14.27-10.28,14.49,0,0,.1.16.28,0S316.81,156.33,317,156Z"/><path class="cls-6" d="M324.37,153.52c-.34-.06-.27-.87.52-1.86s2-1.76,3.15-.64a3.83,3.83,0,0,1,1.16,2.44s-2.5-3.13-4.15-.7a5,5,0,0,0-.29.54A.36.36,0,0,1,324.37,153.52Z"/><path class="cls-6" d="M368.58,55.79a60,60,0,0,1,20.73-22.43c11.65-7.74,23-7.08,25.07-2.85s-7.9,12.43-7.9,12.43c-18.37,16.85-18.86,34-18.72,36.42s.31,8.23,4.91-4.85c4.88-13.87,20.48-22.88,20.48-22.88,15-9.3,25-1,25-1,22.2,17,9.57,72.83,9.2,75.27s1.13.34,1.13.34c10.12-20.44,8.84-36.45,8.64-40s-.94-8.18-.74-9.8,2.44-2.49,4.35-1.19c1.21.82,20.6,10.72,17,58.32s-32.53,55.66-32.53,55.66c1.78,2.24,1.57,3.86,1.57,3.86l-1.38-.79s-4.65-6.52-14.72-4.41a28.47,28.47,0,0,0-16.44,10.61c-.65,1-1,2-2,1.32s3.1-8.12,6.76-11.33c0,0,1.1-1.21.57-1.72s-6.41,1.24-14.85,8.36S394.28,210.92,392,214.17c-2.62,3.71-8.48,7.54-15.35,5.12-7.05-2.49-6.89-12.3-6.76-13,.35-1.78,1-8.46,10.06-12a7.76,7.76,0,0,1,7.05,1.57,13.51,13.51,0,0,0,1.51-1.58c.48-.65,8.29-7.21,6.64-25.06S388,137.88,368.5,130.87c0,0-5.88-2-9.76-2,0,0-2.22,0-2.61-1s-2-4.91-8.5-7.8c0,0-1.35-.67-1.24-1.22s2.39-.27,5.28,1.28,6.38,5.26,6.72,7c0,0,2.86,0,3.23-1a26.6,26.6,0,0,0,.49-18.57s-1.09-2.56.3-3.2,2.87.51,3.88,3.74A48.53,48.53,0,0,1,368,120.89c-.13,3.28,2.32.4,2.65-1.25s1.19-5.13-1.3-14.71-5.78-25.81-4.88-34.37c0,0,.69-2.38,0-2s-1.64,3-2,8.47.4,7.1-1.89,7-6-6-5.86-20.63,11.88-27.66,19.56-30.79c0,0,3.32-1.43,3.25,1s-3.19,7.15-6.35,11S361.92,57.22,364.54,57,368.06,56.74,368.58,55.79Zm7.17,149.49c-.08-.26.45-.9.84-1.28s1.08-1.91.38-2.42a2.86,2.86,0,0,0-2.55.14c-.49.27-1.43.39-1.28-.57s-.33-.46-.33-.46c-1.36,1.7-1.46,5.16-1.33,6.67a1.29,1.29,0,0,0,1.65,1.16c9.9-2.23,12.27-10,12.38-10.33s0-2-4.2-2-6.1,2-7,3.47.18,1.15.75.92,3.36-.78,3.52.86-2,3.62-2,3.62S375.82,205.54,375.75,205.28Zm20.86-41.74c.33,1.17,1.31-.36,1.66-.87a1.33,1.33,0,0,0,.2-1,10,10,0,0,1-1.29-6.51c.21-.76.77-1.27.56,0s1.09,5.52,1.44,6.05,2-2,2.51-2.86,1.74-3.63.85-4.57-7.52-2.92-8.13-2.82a.52.52,0,0,0-.44.68A87.67,87.67,0,0,1,396.61,163.54Z"/><path class="cls-6" d="M309.15,154.2c-1.12-8.73,3.43-14.26,7.81-18.34,4-3.69,3.52-4.18,10.11-9.42a35.47,35.47,0,0,1,14.84-7.2c2.24-.46,2.84-.24,3.06-.53s-1.59-1.63-8.53.65-14.3,9.73-18.79,13.71-7.93,7.6-9.53,15.14,4,17.8,4.29,18.7,1.4,3.44,1.62,3.15-.08-1.13-.08-1.13-.85-2-1.85-4.53A37.63,37.63,0,0,1,309.15,154.2Z"/><path class="cls-6" d="M336.79,119.86s1.74-2.74,1.85-3,.5-1,1.59-.16a32,32,0,0,1,3.39,3.28c.38.57.91.52.31-1.49a7.43,7.43,0,0,0-3.84-4.11s-1.28-.69-2.13,1-1.34,3.72-1.92,4.74C336,120.11,336.57,120.19,336.79,119.86Z"/><path class="cls-6" d="M347,184.52s0-.66-.23-.83-.77-.59-.28-1.19,3.08-1.65,6.11-1.77,8.31.64,10.22,2,1.6,1.54,2.51,1.62a3.16,3.16,0,0,0,2.14-.36c.49-.36.79.4-.3.89s-2.18.27-2.45.48a2.17,2.17,0,0,0-.62,1.35c.05.36,1.74,1,3-.07,0,0,.34-.14.38.18s-.64.74-1.46,1-2.06.24-2.33.45-1.9-.23-2.34-.49a54.29,54.29,0,0,0-7.51-2.17,31.72,31.72,0,0,0-5.83-.33C347.76,185.24,347,185.56,347,184.52Z"/><path class="cls-6" d="M347.94,179.36s-.48.13-.54-.09.89-.85,1.79-1,3.37.3,5,.33,5.37.18,7,1.28,1.86,2.5,1.57,3.14-.21-.41-.69-1.32a4,4,0,0,0-3.18-2.14c-1.92-.32-5.15-.42-5.56-.54a16.3,16.3,0,0,0-4.27-.15Z"/><path class="cls-6" d="M328.5,166.74s-2-6.76-3.53-8c-.74-.6-1.77-1.37-3.72,5.88,0,0-.33.67-.51.26a4.25,4.25,0,0,1,.09-1.59s-1.47-.93-1.64-1.34.29-1.24.51-.9a3.51,3.51,0,0,0,1.21,1.47l.28-.89a15.93,15.93,0,0,1-1.72-3.53c-.18-1.05.81-1,.88-.58a14,14,0,0,0,1.18,3l.93-2.11s-1.56-2.7-1.26-4.17a.61.61,0,0,1,.72-.54c.61.12.62.81.65,1.32a19,19,0,0,0,.54,2.4s.79-1.55,1.78-1.53,2.46,1,3.44,3.46a20.92,20.92,0,0,1,1.65,7.08c.1,2.46.33,5,.33,5s.32,1,.07,1.32-.71,0-1-.3-.66.76-1.26.46-.88-.86-.85-2a7.48,7.48,0,0,0-.72,3.91c0,2.7.58,3.19.58,3.19s.3.44-.12.62-.81-.42-1.31-1.61S325,170.72,328.5,166.74Zm.24,1.09a3.93,3.93,0,0,0-1,2.58c0,1.16.52,1.71.79,1.64a2.38,2.38,0,0,0,.85-2,17.22,17.22,0,0,0-.18-1.92C329.18,167.77,329,167.7,328.74,167.83Z"/><path class="cls-6" d="M329.24,174a2.13,2.13,0,0,1,.37,1.47c0,1.16-.55,2-1.09,1.92s-.83-.61-.76-2S328.79,173.45,329.24,174Z"/><path class="cls-6" d="M430.91,20s-.75,1.67-3.59,1.07-13.65-2.9-24.55.78-11,2.85-11.33,1.46,7.76-6.61,20.33-7.64S432.88,17.17,430.91,20Z"/><path class="cls-6" d="M443.7,45s.37-1.49,2.58-.36S459.68,57.36,462,66.74c0,0,.48,3.32-1.28,4.15s-4.3-1.85-5.86-4.7-7.46-14-9.88-16.87S443.7,45,443.7,45Z"/><path class="cls-6" d="M445.8,36.93s.84-2.3,6.89-.68,20.88,12.91,31,32.06,4.29,29.19,2.74,29.53-5.18,1.25-9.23-10.07-6.89-22-19.78-36.59a97.35,97.35,0,0,0-8.91-8.6C445.2,40.11,445.07,37.73,445.8,36.93Z"/><path class="cls-6" d="M415.85,222s2.92-5.37,3.82-6.83a22.83,22.83,0,0,1,5.62-5.94c2.07-1.25,10.52-6,12.47-7.38s3.84-1.4,4.38-.08-2.24,5.7-6.57,8.44S415.85,222,415.85,222Z"/><path class="cls-6" d="M408.42,233.66s-.68-.3,0-1,2.43-.93,3.73-1.2A89.8,89.8,0,0,0,435.9,225c11.45-5.12,24.34-13.48,32.35-25.17,0,0,9.23-16.07,14.85-23s11.41-12.19,15.69-25.52,6.09-33.85,7.31-40.4-.3-31-7.07-47.84-23.6-35.76-36.9-45.58-33-17.64-42.9-16-22.93,5.1-30,6.53S373.77,10.81,366.1,20a87.12,87.12,0,0,0-6.28,9.72,6.93,6.93,0,0,1-1.09,2c-.43.29-.26-1,.75-3.57s6-12.2,12.18-17.46c0,0,.55-.76-1,.1s-18,12.41-26.56,27.06-8.66,29.35-5.77,43A105.17,105.17,0,0,0,347.73,105s2.57,4.82,2.24,8.69-.94,5.5-1.35,5.54,0-.84.13-2.07,1.69-5.07-1.57-11.59S340,91.89,337.32,80.81a60.15,60.15,0,0,1,3.49-39.05C347.2,27.84,362.34,14,372.23,9.24c0,0,3.91-1.74,4.46-1.54s-.19.79-2.38,2.23c-3,2-7.72,6.36-9.43,10.29,0,0,6.79-8.45,13.54-10.86S391.28,6.82,404,3.6s17.84-5.3,29-1.73S460.59,11,474.67,24.93s20.69,23.69,26,35.57,6.73,23,7.9,36.5-2.27,20.54-2.35,24.06-2.3,20.2-5.7,29.45-5.37,13.84-14.1,24.07-11.64,17.45-14.73,22-7,11.49-19,20.3a95.43,95.43,0,0,1-27.91,13.45s-9.93,2.79-13.84,3.3A10.6,10.6,0,0,1,408.42,233.66Z"/><path class="cls-6" d="M505.61,114.58a168.05,168.05,0,0,1-7.86,26.76s-4.7,11.15-7.82,15.56c0,0-.28.57,0,.54s4.07-5.77,6.71-11.32a172.76,172.76,0,0,0,7.78-21.75A43,43,0,0,0,505.61,114.58Z"/><path class="cls-6" d="M481.19,179.41s-2.81,2.65-12.29,14.39-14.74,15.79-17.49,17.27c0,0-.73.36-.66.62s.79-.16,1.53-.48a60,60,0,0,0,13-11.81c5.53-6.73,10.86-13,13.15-15.13A9.84,9.84,0,0,0,481.19,179.41Z"/></g></g></svg>